<svg width="353" height="229" viewBox="0 0 353 229" fill="none" xmlns="http://www.w3.org/2000/svg">
<path d="M40.5629 199.963C41.1239 200.192 41.8153 200.76 42.2269 200.601C55.3784 195.536 69.2692 193.675 82.9708 190.923C92.3564 189.038 101.631 186.535 110.86 183.969C114.185 183.045 117.288 181.177 117.414 175.859C115.448 176.5 113.863 176.846 112.428 177.513C105.966 180.514 96.6085 179.97 93.4843 175.145C89.2708 168.637 87.0411 161.097 87.6572 153.161C88.1252 147.133 92.2463 141.855 97.0409 140.633C104.322 138.777 110.158 134.255 117.058 132.265C122.637 130.656 129.977 136.928 131.495 143.517C131.713 144.463 131.741 145.453 131.99 147.527C138.859 141.082 145.56 137.073 154.949 140.972C165.271 145.259 163.923 153.387 162.718 161.788C168.255 160.372 171.032 156.726 171.645 151.954C172.854 142.542 167.977 136.523 160.898 131.631C156.46 128.564 152.582 125.2 151.274 119.574C149.48 111.866 154.386 104.585 162.249 104.096C165.216 103.911 166.845 103.336 168.16 100.221C172.143 90.7896 185.996 89.2158 192.135 97.4612C194.241 100.29 195.613 100.163 198.109 98.3172C205.332 92.9763 213.549 96.595 217.389 102.744C221.159 108.779 218.427 118.542 211.664 122.007C205.65 125.087 199.247 127.406 193.023 130.079C191.996 130.52 191.008 131.05 190.124 132.073C199.952 133.472 209.869 134.318 218.216 127.666C225.683 121.718 232.295 114.708 239.631 108.582C247.94 101.645 256.635 95.1692 264.96 88.6509C250.843 77.532 250.843 77.532 255.26 62.966C245.684 59.5072 242.842 56.4382 243.783 48.4146C244.165 45.156 246.878 42.1876 248.44 39.0421C249.073 37.7664 250.3 35.8626 249.84 35.1062C243.402 24.5184 250.695 16.5538 259.383 11.6752C270.616 5.36644 278.207 6.83424 289.625 17.4075C292.645 9.56048 297.74 4.45026 306.511 3.94281C315.529 3.42105 320.687 8.33292 323.454 14.4811C329.264 14.4159 334.327 13.52 338.904 14.6303C341.542 15.2704 344.17 18.8003 345.459 21.6395C350.068 31.7919 347.358 39.6014 338.118 44.7191C341.351 47.8373 347.348 48.0523 350.641 44.1867C353.884 40.3803 356.539 35.8712 358.575 31.2815C362.559 22.2988 363.061 11.6219 370.796 4.53667C373.356 2.19196 377.396 1.4633 381.17 0C381.581 23.6918 381.581 47.3793 381.25 71.6292C375.062 75.9751 369.328 79.9688 363.326 83.5065C335.167 100.103 306.987 116.664 278.701 133.041C268.665 138.852 258.439 144.372 248.059 149.541C237.721 154.69 227.081 159.231 216.227 164.038C214.09 164.973 212.299 165.908 210.147 166.874C206.718 168.277 203.651 169.648 200.296 171.069C199.722 171.376 199.436 171.633 198.796 171.902C193.151 174.203 187.861 176.491 182.198 178.794C179.621 179.829 177.418 180.849 174.85 181.858C168.785 184.04 163.084 186.233 157.007 188.53C148.798 191.409 141.012 194.322 133.125 196.933C101.433 207.425 69.3936 216.629 36.4753 222.486C24.5037 224.615 12.5148 226.647 0.533691 228.724C0.355834 228.238 0.177857 227.752 0 227.266C14.8927 220.142 28.4773 211.133 40.5629 199.963Z" fill="#F1F9FF"/>
</svg>
