<svg width="487" height="439" viewBox="0 0 487 439" fill="none" xmlns="http://www.w3.org/2000/svg">
<path d="M420.014 383.797C419.087 384.238 417.945 385.328 417.265 385.024C395.547 375.302 372.607 371.73 349.98 366.447C334.48 362.829 319.165 358.026 303.923 353.1C298.432 351.326 293.307 347.741 293.1 337.535C296.347 338.764 298.963 339.429 301.334 340.709C312.006 346.469 327.458 345.424 332.618 336.163C339.576 323.673 343.258 309.201 342.241 293.969C341.468 282.4 334.662 272.269 326.744 269.923C314.72 266.361 305.082 257.682 293.688 253.863C284.475 250.775 272.353 262.812 269.847 275.459C269.487 277.275 269.44 279.175 269.029 283.156C257.684 270.786 246.619 263.09 231.113 270.575C214.068 278.803 216.293 294.403 218.283 310.527C209.139 307.809 204.553 300.812 203.541 291.653C201.544 273.588 209.599 262.035 221.289 252.645C228.618 246.758 235.022 240.301 237.183 229.504C240.145 214.709 232.043 200.734 219.058 199.796C214.158 199.442 211.469 198.337 209.297 192.359C202.719 174.257 179.842 171.236 169.703 187.062C166.225 192.491 163.96 192.247 159.838 188.705C147.911 178.454 134.34 185.399 127.998 197.201C121.773 208.784 126.284 227.524 137.453 234.173C147.385 240.085 157.959 244.537 168.238 249.666C169.933 250.512 171.565 251.529 173.024 253.494C156.794 256.18 140.418 257.802 126.632 245.036C114.302 233.618 103.382 220.165 91.267 208.407C77.546 195.091 63.1872 182.663 49.4389 170.152C72.7516 148.811 72.7516 148.811 65.4573 120.854C81.2708 114.215 85.9656 108.324 84.4116 92.9244C83.7804 86.67 79.2994 80.9727 76.7205 74.9353C75.6749 72.4868 73.6483 68.8328 74.4079 67.381C85.0393 47.0594 72.9957 31.7724 58.6494 22.4087C40.0981 10.3001 27.5626 13.1173 8.70651 33.4111C3.71857 18.3499 -4.69538 8.54158 -19.1798 7.56762C-34.0729 6.56618 -42.59 15.9938 -47.1601 27.7943C-56.7548 27.6691 -65.1161 25.9495 -72.6737 28.0807C-77.0307 29.3092 -81.3713 36.0842 -83.4997 41.5337C-91.1107 61.0196 -86.6356 76.0089 -71.3765 85.8315C-76.7154 91.8163 -86.6191 92.2291 -92.0576 84.8096C-97.4126 77.5038 -101.797 68.8494 -105.159 60.0401C-111.738 42.7991 -112.567 22.3065 -125.342 8.70744C-129.57 4.20712 -136.242 2.80858 -142.474 0C-143.152 45.4727 -143.152 90.9374 -142.605 137.481C-132.386 145.823 -122.917 153.488 -113.005 160.278C-66.5034 192.132 -19.966 223.918 26.7462 255.352C43.3203 266.505 60.2079 277.1 77.3501 287.022C94.4221 296.903 111.993 305.62 129.917 314.847C133.447 316.64 136.404 318.434 139.958 320.288C145.62 322.981 150.686 325.614 156.227 328.341C157.174 328.93 157.646 329.423 158.704 329.94C168.025 334.355 176.762 338.747 186.115 343.167C190.369 345.154 194.008 347.112 198.248 349.048C208.265 353.236 217.68 357.446 227.715 361.855C241.271 367.38 254.13 372.972 267.155 377.983C319.491 398.121 372.402 415.787 426.764 427.027C446.534 431.115 466.333 435.014 486.119 439C486.412 438.067 486.706 437.135 487 436.202C462.406 422.529 439.972 405.237 420.014 383.797Z" fill="#F0F9FF"/>
</svg>
