<svg width="143" height="106" viewBox="0 0 143 106" fill="none" xmlns="http://www.w3.org/2000/svg">
<path d="M2.59672 0C2.59672 0 -6.7033 25.3 9.8967 47.7C9.8967 47.7 20.5967 56.1 27.4967 60.9C27.4967 60.9 33.7967 70.4 35.7967 74.5C37.7967 78.5 35.7967 76.3 35.7967 76.3C35.7967 76.3 29.4967 75.2 24.4967 80.3C24.4967 80.3 16.4967 78.8 12.4967 85.8C12.4967 85.8 21.7967 81.8 25.7967 85.8C25.7967 85.8 56.3967 105.6 72.3967 102.7C72.3967 102.7 84.9967 105.6 88.3967 105.6C88.3967 105.6 75.7967 100.1 75.0967 92.4C74.3967 84.7 85.7967 74.8 94.0967 74.8C102.397 74.8 115.697 75.2 125.097 71.5C134.397 67.8 142.097 55.9 142.097 55.9C142.097 55.9 129.097 70.8 116.497 68.9C103.897 67.1 62.8967 67.8 58.8967 75.9C58.8967 75.9 56.5967 79.6 55.1967 76.6C53.8967 73.7 49.8967 63 28.8967 46.2C28.8967 46.2 21.1967 30.1 9.8967 23.1C-1.4033 16.1 2.59672 0 2.59672 0Z" fill="url(#paint0_linear_86_183)"/>
<defs>
<linearGradient id="paint0_linear_86_183" x1="0.0143104" y1="52.7818" x2="142.071" y2="52.7818" gradientUnits="userSpaceOnUse">
<stop stop-color="#16181B"/>
<stop offset="0.9946" stop-color="#285A86"/>
</linearGradient>
</defs>
</svg>
