<svg width="113" height="100" viewBox="0 0 113 100" fill="none" xmlns="http://www.w3.org/2000/svg">
<path d="M110.956 0C110.956 0 118.306 23.8879 105.13 44.9753C105.13 44.9753 96.6701 52.8831 91.1223 57.4959C91.1223 57.4959 86.1293 66.5568 84.465 70.346C82.9394 74.1351 84.465 72.1581 84.465 72.1581C84.465 72.1581 89.458 71.1696 93.4802 75.9472C93.4802 75.9472 99.8601 74.6293 103.05 81.2191C103.05 81.2191 95.6992 77.4299 92.5093 81.2191C92.5093 81.2191 68.099 100 55.4778 97.1993C55.4778 97.1993 45.3531 100 42.7179 100C42.7179 100 52.8427 94.7281 53.2587 87.4794C53.8135 80.2306 44.7983 70.8402 38.141 70.8402C31.4837 70.8402 20.9429 71.1696 13.4534 67.71C6.10258 64.2504 0 53.0478 0 53.0478C0 53.0478 10.2634 67.0511 20.3881 65.4036C30.5128 63.5914 62.9673 64.4152 66.1573 71.9934C66.1573 71.9934 67.9603 75.453 69.0699 72.6523C70.1795 69.8517 73.3694 59.8023 90.0128 43.822C90.0128 43.822 96.1153 28.5009 105.13 22.0758C114.146 15.3213 110.956 0 110.956 0Z" fill="url(#paint0_linear_86_184)"/>
<defs>
<linearGradient id="paint0_linear_86_184" x1="113.048" y1="49.9181" x2="0.0617149" y2="49.9181" gradientUnits="userSpaceOnUse">
<stop stop-color="#1E2022"/>
<stop offset="0.9946" stop-color="#285A86"/>
</linearGradient>
</defs>
</svg>
