<svg width="64" height="64" viewBox="0 0 64 64" fill="none" xmlns="http://www.w3.org/2000/svg">
<path d="M1.16955 0C1.16955 0 -3.01915 15.3333 4.45745 28.9091C4.45745 28.9091 9.27669 34 12.3844 36.9091C12.3844 36.9091 15.222 42.6667 16.1228 45.1515C17.0236 47.5758 16.1228 46.2424 16.1228 46.2424C16.1228 46.2424 13.2852 45.5758 11.0332 48.6667C11.0332 48.6667 7.43006 47.7576 5.62847 52C5.62847 52 9.81719 49.5758 11.6188 52C11.6188 52 25.4009 64 32.6073 62.2424C32.6073 62.2424 38.2823 64 39.8137 64C39.8137 64 34.1387 60.6667 33.8234 56C33.5081 51.3333 38.6426 45.3333 42.3809 45.3333C46.1192 45.3333 52.1095 45.5758 56.3432 43.3333C60.5319 41.0909 64 33.8788 64 33.8788C64 33.8788 58.1448 42.9091 52.4698 41.7576C46.7948 40.6667 28.3285 41.0909 26.5269 46C26.5269 46 25.491 48.2424 24.8605 46.4242C24.2749 44.6667 22.4734 38.1818 13.015 28C13.015 28 9.54694 18.2424 4.45745 14C-0.632041 9.75758 1.16955 0 1.16955 0Z" fill="url(#paint0_linear_86_185)"/>
<defs>
<linearGradient id="paint0_linear_86_185" x1="0.00644535" y1="31.989" x2="63.9883" y2="31.989" gradientUnits="userSpaceOnUse">
<stop stop-color="#1D1F21"/>
<stop offset="0.9946" stop-color="#285A86"/>
</linearGradient>
</defs>
</svg>
