<svg width="1440" height="1563" viewBox="0 0 1440 1563" fill="none" xmlns="http://www.w3.org/2000/svg">
<path d="M442 1103.84C440.428 1100.94 438.856 1098.05 437.284 1095.15C425.965 1074.72 416.533 1054.93 408.044 1033.22C404.586 1024.37 400.97 1016.65 392.795 1011.98C389.808 1010.21 383.206 1007.96 381.477 1004.42C380.376 1002.01 381.005 997.344 381.162 994.931C381.162 988.335 381.162 981.739 381.162 975.304C381.162 966.135 383.677 952.783 381.005 943.935C374.402 944.739 367.014 954.391 362.927 958.896C358.21 964.204 353.337 969.674 349.093 975.304C339.818 988.013 332.743 1001.69 322.682 1013.91C316.551 1021.31 310.106 1023.4 300.988 1023.4C293.285 1023.4 288.884 1023.57 283.224 1029.36C279.766 1032.9 280.395 1035.79 275.678 1034.99C273.478 1034.67 269.233 1031.77 266.875 1030.64C259.487 1027.27 252.884 1021.8 248.325 1014.88C245.338 1010.21 245.338 1009.41 239.836 1008.77C236.692 1008.44 233.076 1008.28 230.404 1006.19C223.644 1000.88 222.072 985.278 220.972 977.235C220.343 972.57 220.972 960.504 214.369 960.826C213.426 965.331 212.797 968.387 211.225 972.731C209.181 978.2 207.452 983.831 205.723 989.461C204.622 992.839 204.308 999.435 202.264 1002.01C200.535 1004.42 198.02 1004.9 195.347 1006.67C190.946 1009.57 184.029 1016.49 181.199 1020.99C178.369 1025.66 177.112 1032.73 176.64 1039.17C176.483 1038.69 176.326 1038.37 176.326 1037.88C173.968 1028.55 170.981 1019.22 167.994 1010.21C165.479 1002.65 161.234 995.413 162.335 987.209C163.121 981.9 166.108 977.396 166.265 971.926C166.579 963.078 162.02 953.909 160.134 945.222C157.147 930.583 157.304 915.944 157.304 900.983C157.618 870.9 159.662 839.852 155.26 810.092C152.588 791.752 145.985 774.379 142.213 756.2C140.641 748.318 132.78 708.744 127.435 710.031C123.82 710.996 121.776 722.096 120.99 725.313C118.789 733.196 119.89 741.883 119.732 750.087C119.575 762.635 117.217 774.379 115.645 786.765C113.601 802.37 116.746 818.457 114.388 833.9C113.759 838.244 111.872 842.105 110.772 846.287C107.156 858.996 109.986 872.509 107.785 885.378C104.484 903.878 105.741 922.861 105.741 941.844C105.741 969.674 105.427 997.344 105.584 1025.17C105.584 1036.27 106.213 1047.21 106.685 1058.31C104.484 1057.35 102.44 1056.87 100.396 1055.58C95.3659 1052.2 92.0646 1046.57 86.8769 1043.35C79.1739 1038.37 69.2701 1038.2 61.0955 1034.83C52.7637 1031.29 48.8336 1026.78 43.6458 1019.22C40.659 1014.72 38.9297 1012.14 34.3708 1009.89C26.5106 1005.71 24.467 1002.97 22.7377 994.126C20.3797 982.704 16.2924 971.765 15.978 960.022C15.8208 955.035 17.0784 949.244 15.8208 944.257C4.34492 944.417 9.06104 977.557 9.21824 984.957C9.53265 1024.69 2.30128 1064.27 -1 1104H442V1103.84Z" fill="#291120"/>
<path d="M1539.06 1024.08C1543.94 1021.86 1546.39 1019.05 1546.71 1014.32C1547.36 1002.63 1546.71 990.801 1546.71 979.117C1546.71 972.462 1546.39 967.285 1544.76 961.073C1543.29 955.158 1541.99 947.171 1541.67 941.107C1541.34 935.339 1541.02 929.867 1540.53 924.395C1540.2 920.846 1539.55 917.148 1538.9 913.303C1537.27 905.021 1535.48 896.886 1533.21 888.604C1529.14 874.11 1523.77 859.912 1517.58 846.01C1511.4 832.108 1507.5 817.466 1497.25 805.782C1493.02 801.049 1487.97 796.76 1484.07 791.732C1480.81 787.443 1481.79 785.816 1481.14 781.231C1480.32 775.759 1477.07 771.174 1476.09 765.702C1475.12 759.934 1473.33 754.758 1471.21 749.138C1469.58 744.849 1467.63 740.559 1465.84 736.27C1465.35 735.087 1464.87 733.904 1464.38 732.721C1462.91 728.728 1461.61 727.249 1459.66 723.404C1457.87 720.15 1457.71 719.262 1454.94 716.304C1450.38 711.572 1449.9 705.804 1447.94 700.036C1444.85 691.162 1441.27 681.105 1434.93 673.858C1431.35 669.717 1421.75 660.547 1415.07 660.991C1408.89 661.435 1410.19 663.505 1412.15 668.386C1414.91 675.041 1418.33 681.401 1420.12 688.352C1423.37 700.184 1426.3 712.015 1432.16 723.108C1436.23 730.65 1440.13 736.418 1443.22 744.405C1448.76 759.194 1446.97 774.724 1446.97 790.253C1446.97 801.937 1445.18 814.804 1446.8 826.34C1448.11 834.622 1454.13 843.939 1459.66 849.855C1463.89 854.44 1464.05 857.398 1463.89 863.166C1463.89 868.342 1463.89 873.519 1463.89 878.843C1463.89 884.611 1463.89 890.379 1463.89 896.147V978.673C1468.12 970.539 1464.05 979.561 1463.73 989.322C1463.56 994.35 1463.89 999.527 1463.89 1004.7C1463.89 1010.32 1462.91 1015.5 1468.45 1018.75C1473.16 1021.42 1482.93 1022.45 1488.62 1023.63C1492.04 1024.37 1495.78 1025.11 1499.69 1025.85H1533.69C1535.65 1025.41 1537.6 1024.82 1539.06 1024.08Z" fill="#2B201F"/>
<path d="M1434.28 1001.15C1434.11 1002.48 1434.76 1004.11 1434.44 1005.44C1433.79 1008.1 1432.49 1009.58 1431.83 1011.95C1430.37 1017.42 1432.16 1020.53 1428.58 1025.7C1428.58 1025.85 1428.42 1026 1428.25 1026H1269.93C1271.72 1023.78 1272.86 1021.27 1273.51 1018.61C1275.14 1012.99 1275.3 1006.63 1276.77 1001.15C1281.65 982.666 1294.99 967.729 1301.01 949.685C1305.24 936.818 1307.68 927.649 1307.52 914.19C1307.52 903.098 1307.52 891.858 1307.52 880.766C1307.52 858.581 1309.47 835.657 1307.36 813.62C1305.57 795.133 1299.87 776.942 1298.25 758.307C1297.6 750.764 1295.81 738.341 1298.25 730.65C1304.43 731.538 1305.89 748.694 1307.52 752.687C1311.26 762.596 1315.66 771.914 1317.93 782.266C1319.89 791.14 1323.47 792.619 1329.49 799.126C1336.16 806.373 1338.11 816.874 1339.9 825.896C1342.99 843.052 1346.74 860.06 1351.45 876.92C1353.08 882.688 1354.38 888.456 1355.68 894.372C1356.99 899.844 1360.89 901.323 1365.61 897.034C1370.49 892.597 1368.54 884.463 1368.54 878.843C1368.54 868.786 1368.54 858.581 1368.54 848.524C1368.54 835.657 1367.56 824.713 1363.98 812.141C1360.89 800.901 1354.55 789.217 1353.73 777.534C1353.41 771.766 1354.38 765.85 1354.06 759.934C1353.24 745.884 1346.57 733.017 1346.41 718.523C1346.25 702.254 1348.52 686.577 1341.69 671.048C1336.81 659.956 1336.81 650.047 1336.81 638.511C1336.81 632.447 1333.07 618.988 1341.69 617.214C1347.39 616.03 1349.5 618.397 1351.45 622.982C1356.82 635.701 1356.5 650.342 1356.34 663.653C1356.17 675.633 1353.73 689.979 1359.26 701.367C1362.03 707.283 1367.4 711.72 1370.33 717.635C1374.88 726.805 1377.65 736.862 1380.74 746.475C1383.51 755.201 1389.2 762.152 1392.46 770.73C1395.55 778.865 1398.64 788.034 1402.71 795.577C1407.59 804.895 1411.5 814.508 1416.86 823.825C1422.56 833.882 1420.93 844.975 1425.33 855.475C1428.74 863.757 1431.35 871.892 1433.3 880.47C1436.23 893.928 1435.58 908.57 1437.53 922.472C1439.64 938.149 1441.11 955.01 1439.16 970.835C1437.86 980.744 1435.58 990.949 1434.28 1001.15Z" fill="#2B201F"/>
<path d="M1413.45 848.968C1413.45 849.855 1413.45 850.594 1413.45 851.482C1413.45 855.919 1415.4 860.356 1416.21 864.793C1416.7 867.455 1417.52 870.117 1418.17 872.779C1418.33 873.814 1418.98 875.589 1418.98 876.624C1418.98 877.66 1418.49 877.807 1417.84 878.547C1416.7 879.73 1415.89 881.061 1414.75 882.244C1413.29 883.871 1411.82 885.35 1410.84 887.273C1410.52 887.864 1409.22 889.491 1409.22 890.083C1411.98 889.195 1414.1 886.681 1417.19 887.273C1419.14 887.569 1419.96 889.639 1420.61 891.266C1421.42 893.632 1422.23 896.147 1422.72 898.513C1423.05 900.288 1422.72 901.915 1423.54 903.542C1424.02 904.429 1424.67 905.168 1425.16 906.056C1425.98 907.683 1426.14 909.457 1426.14 911.232C1426.14 912.415 1426.14 912.267 1425.16 912.415C1423.54 912.859 1421.42 912.859 1419.63 912.859C1417.52 912.859 1416.05 913.598 1414.1 914.338C1413.61 914.486 1412.63 915.077 1411.98 915.225C1410.84 915.373 1409.87 915.225 1408.73 915.373C1407.1 915.521 1405.64 916.113 1404.01 916.409C1402.55 916.704 1401.24 916.556 1399.78 916.852C1395.22 917.74 1393.11 922.62 1389.37 924.691C1386.44 926.318 1382.86 926.613 1379.44 926.613C1374.23 926.613 1368.7 928.536 1363.98 930.459C1361.87 931.346 1359.59 931.938 1357.31 932.529C1355.68 932.973 1354.06 933.565 1352.27 933.86C1348.69 934.452 1344.95 935.487 1341.53 936.375C1338.27 937.114 1335.51 938.889 1332.25 939.48C1329.81 939.924 1327.21 940.368 1324.77 940.959C1323.3 941.403 1322 942.143 1320.7 942.882C1319.56 943.621 1318.91 944.509 1318.1 945.396C1316.96 946.727 1316.8 947.319 1315.01 947.319C1313.22 947.319 1311.26 947.911 1309.8 949.094C1308.33 950.425 1307.36 952.495 1306.22 954.122C1305.08 955.453 1303.45 956.784 1302.64 958.263C1301.99 959.299 1302.15 960.038 1302.15 961.369C1302.15 963.44 1301.5 965.362 1301.66 967.433C1301.66 969.356 1301.34 971.13 1301.01 973.053C1300.69 974.828 1300.04 976.602 1300.04 978.377C1300.04 980.3 1301.83 982.666 1303.45 983.849C1309.47 988.286 1317.12 991.244 1324.93 992.28C1331.11 993.019 1337.62 993.019 1343.81 992.427C1347.55 992.132 1351.13 991.688 1354.71 990.653C1358.78 989.469 1362.68 987.695 1366.42 986.068C1370 984.441 1373.58 982.814 1377.49 981.927C1380.58 981.187 1383.67 980.744 1386.93 980.004C1390.83 979.117 1394.74 978.081 1397.99 975.863C1401.9 973.053 1405.8 969.503 1409.05 965.954C1411.82 962.996 1415.07 960.925 1418.17 958.263C1422.23 954.566 1427.28 951.904 1430.7 947.467C1432.16 945.396 1431.83 942.734 1431.83 940.368C1431.83 938.445 1431.83 936.375 1431.83 934.452C1431.83 931.494 1431.51 928.388 1431.83 925.43C1432 923.803 1432.32 921.733 1432.81 920.254C1432.97 919.81 1433.3 919.514 1433.46 919.071C1433.79 918.183 1433.46 917.444 1433.46 916.556C1433.62 915.521 1433.95 914.782 1434.11 913.746C1434.11 912.859 1434.11 912.12 1434.11 911.232C1434.11 909.014 1433.14 907.091 1432.97 904.873C1432.97 903.394 1432.65 902.21 1432.49 900.731C1432.32 899.4 1432.65 898.069 1432.32 896.738C1431.67 893.78 1431.02 890.674 1430.7 887.717C1430.53 886.09 1429.88 884.463 1429.56 882.836C1429.23 881.505 1429.39 880.026 1429.07 878.695C1428.74 877.512 1428.58 876.624 1428.58 875.441C1428.58 874.11 1428.58 873.223 1428.25 871.892C1427.77 870.561 1427.44 869.082 1426.95 867.751C1426.3 866.419 1425.16 865.828 1424.35 864.645C1423.21 863.018 1422.23 860.947 1422.23 859.173C1422.23 856.806 1421.58 854.144 1421.1 851.926C1420.93 850.89 1420.28 850.003 1419.96 849.116C1419.47 847.784 1419.31 846.601 1418.82 845.27C1418.17 843.2 1417.03 841.425 1415.73 839.798C1414.75 838.615 1413.29 835.065 1411.5 834.917C1411.01 836.396 1411.33 838.319 1411.33 839.798C1411.33 841.425 1411.33 842.46 1412.15 843.791C1412.8 844.826 1413.77 846.01 1414.26 847.045C1414.75 849.263 1414.1 852.369 1413.45 848.968Z" fill="#38192D"/>
<path d="M1273.51 1018.61C1273.51 1021.12 1273.51 1023.49 1273.51 1026H1147.25C1147.9 1019.79 1148.55 1013.58 1148.71 1007.37C1149.04 991.244 1162.05 974.976 1167.59 959.742C1173.12 944.657 1177.19 928.832 1184.51 914.486C1186.95 909.605 1191.83 905.908 1194.6 901.175C1199.8 892.301 1200.13 884.019 1200.13 874.258C1199.97 860.799 1200.46 847.193 1200.29 833.734C1200.13 823.677 1198.01 815.543 1189.07 809.183C1183.21 805.042 1173.77 799.57 1166.29 798.831C1163.19 788.33 1172.96 777.386 1179.95 769.991C1185.49 764.075 1190.37 759.786 1197.2 755.497C1202.57 752.095 1208.59 745.884 1210.06 739.524C1210.71 736.418 1210.22 730.207 1210.06 727.544C1209.89 723.551 1208.59 723.403 1208.1 721.185C1207.13 716.452 1207.29 710.98 1207.45 706.099C1207.78 700.775 1211.68 696.93 1212.5 691.606C1212.82 689.535 1212.82 687.76 1212.66 685.985C1212.17 682.88 1210.71 680.365 1208.1 677.112C1203.55 671.196 1198.18 664.097 1195.74 656.998C1193.78 651.378 1193.78 646.053 1188.09 641.469C1183.86 637.919 1178.65 637.328 1173.12 635.849C1164.5 633.63 1157.01 631.116 1150.34 625.644C1142.2 618.988 1137.97 611.446 1143.51 601.684C1147.25 595.029 1157.34 588.817 1163.68 584.233C1167.91 581.275 1172.47 578.612 1176.7 575.655C1189.72 566.633 1203.71 558.942 1217.21 550.512C1222.42 547.258 1230.56 545.632 1233.32 540.011C1233.97 538.68 1233.49 536.758 1234.14 535.575C1235.11 533.948 1235.76 533.356 1237.07 533.06C1237.72 532.912 1238.69 532.912 1239.99 532.765C1247.15 532.469 1260.82 529.363 1262.29 538.237C1262.94 541.934 1261.31 546.075 1260.98 549.773C1260.5 555.541 1260.82 561.456 1260.82 567.224C1260.82 572.845 1260.82 578.317 1260.82 583.789C1260.82 591.036 1259.03 594.733 1255.29 601.093C1253.17 604.642 1250.57 607.009 1247.97 610.41C1244.71 614.699 1244.71 618.84 1243.09 623.277C1242.27 625.939 1241.13 626.975 1241.13 630.376C1241.13 632.595 1241.13 634.813 1241.13 637.032C1241.13 641.764 1240.97 646.645 1241.13 651.526C1241.3 659.66 1245.53 667.055 1248.94 674.45C1251.38 679.774 1253.5 685.098 1253.34 690.866C1253.17 702.106 1253.5 713.494 1253.34 724.734C1253.34 730.946 1253.99 732.573 1259.52 735.975C1268.31 741.299 1272.7 744.7 1272.86 754.757C1273.19 775.167 1261.47 788.922 1246.18 803.12C1236.25 812.289 1238.86 823.825 1238.69 835.805C1238.53 847.637 1241.3 857.546 1246.01 868.638C1249.59 877.068 1252.04 885.794 1254.8 894.52C1258.06 904.281 1262.12 913.303 1263.91 923.36C1266.19 936.67 1266.19 950.129 1267.66 963.44C1269.28 977.934 1272.7 992.871 1272.86 1007.37C1273.51 1011.06 1273.51 1014.91 1273.51 1018.61Z" fill="#2B201F"/>
<path d="M1176.54 624.756C1180.12 624.756 1182.88 625.939 1186.46 626.531C1188.25 626.827 1190.69 626.975 1192.48 626.827C1195.25 626.531 1196.88 624.608 1199.32 624.017C1204.2 622.686 1207.61 625.348 1210.87 628.01C1212.33 629.193 1214.45 629.933 1215.59 631.116C1216.73 632.299 1217.54 635.257 1217.7 636.884C1218.19 640.433 1217.21 643.835 1218.35 647.532C1219.17 650.194 1220.96 652.709 1221.61 655.371C1222.26 657.589 1222.58 659.66 1224.05 661.582C1225.68 663.801 1228.12 666.019 1228.44 668.682C1229.42 675.633 1217.54 670.604 1215.26 668.238C1213.15 666.019 1213.63 663.653 1212.01 661.287C1211.03 659.808 1210.06 660.399 1208.59 659.364C1207.29 658.477 1207.61 658.477 1207.61 656.85C1207.45 651.969 1209.57 647.532 1208.75 642.504C1208.43 640.433 1208.75 640.877 1206.64 640.581C1205.66 640.433 1204.36 640.581 1203.38 640.581C1200.62 640.581 1198.83 642.208 1195.9 641.321C1196.22 640.285 1198.18 640.285 1199.15 639.546C1199.8 638.954 1201.27 637.771 1201.43 636.588C1201.76 633.186 1194.76 634.517 1192.16 634.517C1189.07 634.517 1186.14 633.63 1183.53 632.595C1182.07 632.003 1180.77 631.855 1179.3 631.559C1178.65 631.412 1178.49 630.82 1177.68 630.672C1176.7 630.524 1175.56 630.968 1174.58 630.524C1174.26 629.045 1174.1 628.158 1173.44 626.975C1176.05 626.235 1179.14 627.27 1181.91 626.679C1181.91 626.235 1181.91 625.939 1176.54 624.756Z" fill="#38192D"/>
<path d="M1251.55 792.323C1249.76 791.731 1247.64 792.619 1246.18 793.506C1241.46 796.316 1237.23 801.493 1231.21 802.232C1227.14 802.824 1222.91 801.64 1218.68 802.676C1212.82 804.007 1207.29 806.077 1201.43 807.408C1201.76 808.739 1204.2 808.148 1205.5 808.148C1209.4 808.148 1212.82 808.592 1216.56 809.183C1219.98 809.775 1220.79 809.627 1220.79 812.585C1220.79 814.36 1220.79 816.134 1220.79 818.057C1220.79 819.98 1219.98 821.163 1219.66 822.938C1219.33 824.417 1219.66 826.339 1219.66 827.818C1219.66 831.22 1219.66 834.769 1219.66 838.171C1219.66 841.425 1219.66 844.678 1219.66 848.08C1219.66 850.003 1219.66 851.777 1219.66 853.7C1219.66 854.735 1219.33 856.066 1219.66 856.954C1220.14 857.841 1220.96 857.841 1221.61 858.581C1224.54 861.982 1225.02 866.715 1227.47 870.412C1229.09 872.927 1231.37 874.997 1233 877.363C1234.3 879.138 1235.11 881.209 1236.58 882.984C1237.23 883.871 1239.18 886.829 1240.16 886.977C1241.95 881.209 1236.41 877.955 1234.3 873.222C1232.35 868.786 1232.84 864.053 1232.84 859.468C1232.84 853.552 1232.84 847.636 1232.84 841.72C1232.84 839.354 1232.02 838.023 1231.7 835.805C1231.53 834.473 1232.18 832.995 1231.7 831.811C1231.37 830.628 1230.72 830.332 1230.56 828.853C1229.91 824.86 1229.74 818.648 1231.37 814.951C1232.35 812.585 1234.62 811.845 1236.25 810.071C1238.37 807.852 1239.18 804.894 1241.46 802.676C1244.55 799.718 1249.76 798.83 1252.69 795.872C1253.66 794.837 1253.99 794.246 1252.85 793.21C1252.69 792.767 1252.2 792.471 1251.55 792.323Z" fill="#38192D"/>
<path d="M1244.88 688.795C1244.88 695.451 1246.99 701.958 1245.85 708.614C1245.36 711.867 1244.39 715.121 1244.88 718.523C1245.2 720.297 1246.18 721.776 1246.99 723.403C1248.78 726.657 1249.76 730.65 1252.04 733.46C1254.15 735.975 1257.57 737.749 1259.68 740.263C1262.94 744.109 1262.12 749.285 1262.12 753.87C1262.12 754.905 1262.12 755.793 1262.12 756.828C1262.12 758.307 1261.47 758.899 1261.31 760.082C1260.82 762.004 1261.15 763.927 1261.15 765.85C1260.98 768.216 1259.85 770.582 1258.71 772.505C1257.73 773.984 1257.4 775.759 1256.59 777.386C1255.78 779.308 1254.96 780.344 1254.48 782.266C1254.15 783.154 1253.83 783.154 1253.66 784.485C1253.5 785.964 1254.15 786.999 1252.85 788.182C1252.2 786.851 1252.52 784.928 1252.69 783.745C1252.69 780.787 1252.36 777.533 1252.69 774.576C1253.01 771.913 1254.31 769.695 1255.45 767.329C1257.24 763.187 1258.87 755.201 1255.78 751.356C1253.5 748.546 1249.92 746.919 1246.34 746.031C1242.76 745.144 1239.34 745.292 1235.76 745.292C1233.32 745.292 1229.26 746.031 1226.98 745.144C1226.81 741.151 1232.35 741.447 1235.11 741.299C1238.2 741.151 1241.78 739.968 1242.27 736.714C1242.92 731.39 1242.92 724.291 1240.81 719.558C1239.83 717.192 1238.86 714.677 1238.86 712.163C1239.02 708.909 1240.48 705.951 1241.13 702.846C1241.46 701.515 1241.3 700.183 1241.62 698.852C1242.11 697.226 1242.6 695.599 1243.09 693.972C1243.09 691.753 1243.25 688.352 1244.88 688.795Z" fill="#38192D"/>
<path d="M1253.01 570.774C1253.01 571.957 1253.01 572.992 1252.85 574.027C1252.36 577.281 1252.04 580.535 1251.71 583.789C1251.55 584.824 1251.55 586.007 1251.55 587.042C1251.55 587.782 1251.71 588.521 1251.55 589.261C1251.06 591.479 1248.46 593.402 1246.67 594.733C1242.92 597.839 1238.86 600.945 1235.76 604.642C1234.46 606.269 1233.32 607.896 1231.86 609.523C1230.07 611.445 1227.79 612.924 1225.51 614.551C1223.89 615.734 1222.1 616.77 1220.31 617.805C1219 618.544 1217.7 619.136 1216.89 620.319C1216.4 620.911 1215.91 622.242 1216.89 622.538C1218.52 622.981 1220.96 620.763 1221.93 620.023C1223.56 618.988 1225.02 617.953 1226.81 617.361C1227.79 616.917 1228.77 616.622 1229.58 616.03C1230.07 615.734 1230.88 615.586 1231.37 615.291C1230.88 618.692 1229.09 621.798 1228.93 625.348C1228.6 629.932 1227.3 634.369 1227.3 638.954C1227.3 640.137 1227.3 641.025 1227.95 642.208C1228.44 643.243 1229.26 643.835 1230.07 644.722C1231.7 646.645 1232.51 649.159 1234.14 650.934C1234.79 649.011 1233.81 646.645 1233.32 644.87C1232.35 640.877 1233 636.44 1233.65 632.447C1233.97 629.932 1234.46 627.418 1235.11 624.904C1235.28 623.869 1235.44 622.981 1235.76 621.946C1236.41 620.171 1237.55 618.544 1238.37 616.77C1238.69 616.03 1238.86 615.291 1239.02 614.699C1239.34 613.516 1239.99 612.628 1240.81 611.741C1241.62 610.558 1242.6 609.227 1243.57 608.192C1244.88 606.86 1246.18 605.529 1247.15 604.198C1247.8 603.163 1248.78 602.424 1249.43 601.388C1250.25 600.205 1250.9 599.022 1251.71 597.839C1253.01 596.064 1254.31 594.585 1254.96 592.662C1255.29 591.775 1255.29 590.888 1255.29 589.852C1255.29 587.486 1255.45 584.972 1254.96 582.605C1254.64 581.126 1254.8 579.352 1254.8 577.873C1254.8 576.246 1254.8 574.767 1254.8 573.14C1254.8 572.548 1255.13 570.922 1254.8 570.478C1254.15 569.295 1252.69 570.774 1253.01 570.774Z" fill="#38192D"/>
<path d="M1310.45 803.12C1310.29 805.634 1311.1 808 1311.43 810.662C1311.75 813.325 1311.91 815.987 1312.24 818.649C1312.57 821.459 1312.57 824.121 1312.57 826.783C1312.57 832.995 1312.08 839.206 1312.08 845.566C1312.08 854.292 1311.43 863.166 1312.73 871.892C1313.38 876.772 1314.68 881.653 1315.49 886.533C1315.66 887.864 1315.82 889.048 1316.47 890.379C1316.8 891.266 1317.28 893.337 1318.1 893.78C1319.07 893.484 1318.59 891.71 1318.75 890.97C1319.07 889.196 1319.24 887.421 1319.24 885.646C1319.24 881.801 1319.24 877.955 1319.24 874.11C1319.24 872.039 1319.4 870.117 1318.91 868.046C1318.42 866.419 1318.26 865.384 1318.26 863.757C1318.26 862.574 1318.1 861.391 1318.26 860.208C1318.59 857.546 1319.56 855.031 1319.89 852.369C1320.05 849.707 1320.7 847.637 1320.05 844.974C1319.72 843.791 1319.4 841.869 1318.59 840.981C1318.91 840.685 1319.24 840.538 1319.72 840.242C1321.03 839.502 1321.51 838.763 1322.49 837.727C1323.47 836.544 1323.95 835.953 1324.28 834.622C1323.47 834.326 1322.49 834.77 1321.51 834.622C1321.03 834.474 1320.38 834.178 1319.89 833.882C1318.1 832.699 1317.77 830.924 1317.28 829.002C1316.8 827.375 1317.12 825.304 1317.12 823.677C1317.12 822.05 1316.8 820.867 1316.47 819.24C1316.31 818.205 1315.98 817.466 1315.98 816.43C1315.98 815.395 1315.82 814.803 1315.49 813.916C1315.33 813.177 1315.49 812.437 1315.33 811.698C1315.17 811.106 1314.84 810.367 1314.52 809.775C1313.87 808.296 1312.89 807.113 1312.4 805.634C1312.24 805.042 1311.91 804.155 1311.43 803.711C1311.26 803.415 1311.43 803.12 1310.94 803.12C1310.45 803.12 1310.29 803.711 1310.45 803.12Z" fill="#38192D"/>
<path d="M1249.76 908.126C1249.76 910.049 1249.76 911.972 1249.76 913.894C1249.92 918.923 1249.27 923.36 1245.53 927.501C1242.6 930.755 1239.34 933.565 1235.11 935.339C1231.53 936.818 1228.12 937.114 1224.21 937.262C1219.49 937.41 1214.77 938.741 1210.38 939.776C1205.5 940.811 1201.43 943.622 1196.71 945.248C1194.6 945.988 1192.81 946.136 1190.53 946.136C1189.39 946.136 1188.41 946.579 1187.28 946.727C1185.49 946.875 1183.86 946.579 1182.07 947.023C1180.6 947.319 1179.3 947.467 1178 947.763C1177.35 947.91 1176.7 948.058 1176.05 948.206C1175.56 948.354 1174.75 948.798 1174.26 948.798C1174.42 950.868 1182.23 949.094 1183.37 948.798C1186.14 948.206 1188.58 948.354 1191.34 947.911C1192.64 947.763 1194.11 947.763 1195.41 947.615C1197.36 947.319 1199.32 946.727 1201.43 946.727C1203.71 946.579 1206.15 946.579 1208.43 946.727C1209.4 946.727 1210.22 947.171 1211.19 947.319C1212.17 947.467 1213.15 947.171 1214.29 947.319C1217.38 947.91 1220.31 948.058 1223.4 947.319C1225.35 946.875 1227.14 945.988 1229.26 945.84C1231.21 945.692 1233 945.396 1234.79 944.805C1237.55 943.917 1239.99 944.361 1242.76 945.248C1244.06 945.544 1245.36 945.692 1246.5 945.84C1247.8 946.136 1249.11 945.988 1250.25 946.284C1251.38 946.432 1252.69 946.875 1253.83 947.171C1254.96 947.615 1256.92 948.206 1257.89 947.467C1259.03 946.579 1259.03 943.917 1258.87 942.734C1258.87 940.811 1258.87 939.037 1259.36 937.114C1260.01 935.044 1260.01 933.121 1260.01 930.902C1260.01 927.944 1259.52 925.726 1258.54 923.064C1257.73 920.55 1256.75 918.035 1255.62 915.669C1254.96 914.338 1254.8 913.007 1254.15 911.676C1253.66 910.788 1253.5 909.605 1252.85 908.718C1252.69 908.422 1251.87 907.683 1251.55 907.683C1250.08 907.683 1251.38 911.084 1249.76 908.126Z" fill="#38192D"/>
<path d="M1349.5 881.505C1349.5 882.836 1349.5 884.019 1349.5 885.35C1349.5 888.16 1349.5 890.822 1349.5 893.632C1349.5 895.259 1349.66 896.738 1350.8 897.921C1352.1 899.105 1353.89 900.436 1355.52 901.175C1356.34 901.471 1360.08 902.802 1358.61 903.985C1357.31 904.873 1353.57 904.577 1352.1 904.281C1350.64 903.985 1349.83 902.802 1348.52 902.358C1347.55 902.063 1346.57 902.358 1345.76 901.767C1344.62 901.027 1344.46 900.14 1344.29 898.957C1343.81 896.442 1343.32 894.224 1342.5 891.71C1342.34 890.97 1341.85 890.083 1341.85 889.196C1341.85 888.456 1342.18 887.865 1341.37 887.569C1340.23 887.125 1337.46 887.569 1336.32 887.569C1334.53 887.569 1334.53 886.829 1336.32 886.385C1337.62 886.09 1339.09 885.498 1340.39 885.202C1342.02 884.907 1343.97 884.907 1344.95 883.575C1345.6 882.688 1346.57 881.209 1346.25 880.174C1346.08 879.139 1345.11 878.695 1344.78 877.66C1344.13 875.293 1343.64 873.223 1343.64 870.856C1343.64 868.49 1343.64 866.124 1343.64 863.905C1343.64 862.574 1343.32 860.799 1343.81 859.616C1344.62 859.764 1345.11 861.391 1345.27 862.13C1345.92 864.497 1347.06 866.567 1347.55 868.934C1348.36 871.892 1349.66 874.554 1349.66 877.512C1349.66 878.103 1349.66 878.843 1349.66 879.434C1349.5 880.026 1349.5 880.765 1349.5 881.505Z" fill="#38192D"/>
<path d="M1369.03 730.206C1369.35 733.312 1370.49 736.418 1370.82 739.524C1371.3 744.109 1371.14 748.693 1371.63 753.426C1371.96 756.384 1371.47 759.49 1372.77 762.3C1373.75 764.37 1375.05 766.293 1376.02 768.216C1377.16 770.138 1377.81 772.209 1379.12 774.132C1379.77 775.167 1380.58 776.054 1381.07 777.09C1381.72 778.273 1381.72 779.604 1382.04 780.935C1382.69 783.301 1383.67 785.372 1384.16 787.738C1384.65 790.548 1385.14 793.062 1385.3 795.872C1385.46 798.978 1386.6 802.232 1388.06 805.042C1389.69 808 1393.27 808.887 1395.71 811.106C1398.32 813.472 1399.45 816.726 1401.24 819.536C1402.38 821.311 1403.52 822.938 1404.82 824.564C1405.31 825.156 1405.47 826.043 1405.8 826.635C1406.29 827.522 1406.94 828.558 1407.59 829.445C1407.75 829.741 1408.57 830.628 1408.89 830.776C1410.52 831.368 1410.03 828.114 1409.87 827.374C1409.54 825.895 1408.4 824.564 1407.75 823.233C1407.1 821.902 1406.61 820.719 1405.64 819.536C1403.85 817.17 1402.38 814.951 1401.08 812.585C1399.94 810.662 1399.13 808.444 1398.15 806.373C1397.5 804.894 1397.18 803.415 1396.69 801.936C1395.71 798.091 1394.25 794.246 1393.11 790.4C1392.78 789.513 1392.3 788.626 1391.97 787.738C1391.64 786.851 1391.81 785.963 1391.48 784.928C1390.83 783.005 1390.18 781.231 1389.04 779.604C1386.6 776.35 1385.62 772.357 1384.65 768.659C1384.32 767.476 1384 766.441 1383.83 765.406C1383.67 764.814 1383.83 764.223 1383.67 763.483C1383.51 762.596 1382.86 761.856 1382.69 760.969C1382.21 759.342 1381.39 757.715 1381.23 756.088C1380.9 754.313 1381.07 752.391 1380.42 750.616C1379.77 748.989 1378.63 747.362 1377.65 745.883C1376.84 744.552 1376.35 742.925 1375.54 741.594C1374.23 739.376 1373.26 736.862 1372.44 734.643C1372.12 733.608 1371.47 732.721 1370.98 731.685C1370.33 730.798 1370.17 729.467 1369.03 730.206Z" fill="#38192D"/>
<path d="M1320.21 790.4C1318.91 792.767 1320.7 794.837 1322.17 797.056C1323.47 799.274 1324.77 801.493 1325.91 803.859C1326.88 805.782 1328.02 807.556 1329 809.479C1330.14 812.141 1331.6 814.508 1332.09 817.318C1332.58 819.536 1333.23 821.607 1333.72 823.825C1334.04 825.156 1333.88 826.635 1334.21 828.114C1334.53 829.593 1334.86 830.924 1335.18 832.255C1335.83 834.917 1336 837.727 1336.48 840.389C1336.65 841.129 1336.32 841.868 1336.48 842.608C1336.65 843.495 1337.46 844.531 1337.95 845.418C1338.44 846.305 1339.41 848.82 1340.88 849.115C1341.37 847.784 1340.55 846.897 1340.39 845.714C1339.9 842.756 1338.76 839.946 1338.11 836.988C1337.13 832.403 1335.51 827.67 1335.51 823.086C1335.51 821.754 1335.67 820.276 1335.51 818.944C1335.34 817.909 1334.86 816.874 1334.53 815.839C1334.21 814.803 1334.04 814.212 1333.39 813.324C1332.74 812.437 1332.58 811.55 1331.93 810.81C1330.79 809.183 1329.98 806.965 1329.49 805.19C1329 803.415 1328.35 801.936 1327.37 800.457C1326.56 798.978 1325.26 797.795 1324.44 796.316C1323.63 794.246 1321.03 793.063 1320.21 790.4Z" fill="#38192D"/>
<path d="M1187.44 583.494C1188.74 582.163 1189.88 580.24 1191.34 579.205C1194.76 576.543 1199.8 575.507 1201.43 571.366C1198.5 570.627 1194.76 571.218 1191.83 571.218C1189.88 571.218 1189.23 571.218 1187.6 572.106C1185.81 573.141 1184.35 575.064 1185.32 579.057C1179.95 581.571 1176.54 585.86 1172.47 589.853C1166.45 595.621 1158.8 599.762 1152.78 605.53C1150.34 608.045 1148.39 610.263 1148.39 613.517C1148.39 614.848 1147.9 617.51 1150.66 616.623C1151.8 616.179 1152.45 613.813 1152.78 612.629C1153.43 609.967 1153.43 606.714 1156.2 604.939C1156.68 604.643 1157.5 604.791 1157.99 604.495C1159.61 603.756 1160.92 602.72 1162.38 601.685C1165.31 599.614 1168.56 597.84 1171.17 595.473C1174.26 592.515 1178 591.036 1181.42 588.522C1183.7 587.043 1185.65 585.268 1187.44 583.494Z" fill="#38192D"/>
<path d="M1189.88 794.246C1191.99 793.95 1193.78 794.246 1195.74 793.802C1197.69 793.359 1199.64 793.506 1201.59 793.063C1202.73 792.767 1203.38 792.323 1204.85 792.323C1206.8 792.175 1210.71 792.915 1211.19 790.548C1209.73 790.253 1208.43 789.513 1207.13 789.365C1204.03 788.774 1200.29 789.217 1197.2 789.957C1195.41 790.401 1189.72 791.436 1188.58 789.957C1187.76 788.922 1188.25 783.006 1188.41 781.675C1188.9 779.16 1190.2 777.238 1192.32 775.907C1193.95 774.871 1195.9 773.984 1197.69 772.949C1199.15 772.209 1199.48 771.913 1200.29 770.435C1201.11 768.956 1200.78 768.512 1201.27 766.885C1201.76 764.962 1204.03 762.3 1205.34 760.821C1205.99 759.934 1207.61 759.046 1206.64 757.715C1205.82 756.384 1203.22 757.124 1205.66 754.166C1204.2 754.314 1203.71 756.236 1202.9 757.272C1201.11 759.342 1198.5 760.821 1196.71 763.04C1194.11 766.146 1191.18 768.216 1189.23 771.766C1188.58 773.097 1187.93 774.28 1187.28 775.463C1185.97 777.829 1184.18 779.456 1182.56 781.527C1181.09 783.302 1180.28 785.372 1179.14 787.443C1177.68 790.105 1176.7 792.767 1175.56 795.281C1177.84 795.873 1182.07 795.725 1184.35 795.577C1186.3 795.133 1187.93 794.394 1189.88 794.246Z" fill="#38192D"/>
<path d="M1222.58 910.64C1218.19 910.64 1214.29 910.936 1210.22 909.605C1207.78 908.865 1206.31 908.274 1205.82 905.612C1205.66 904.724 1205.5 902.358 1205.99 901.619C1206.8 900.583 1207.94 901.175 1208.92 900.583C1213.15 897.625 1211.36 889.195 1211.36 885.054C1211.36 882.392 1211.36 879.73 1211.36 877.068C1211.36 876.18 1211.68 874.849 1211.36 874.11C1211.03 873.074 1210.06 872.631 1210.06 871.3C1207.78 871.595 1208.27 873.814 1207.94 875.293C1207.61 877.068 1207.13 877.955 1207.13 879.878C1207.13 880.765 1207.45 882.244 1207.13 883.131C1206.96 884.019 1206.15 884.167 1205.99 885.054C1205.82 885.941 1206.15 886.829 1205.82 887.864C1205.34 889.491 1203.38 890.97 1205.01 890.97C1205.01 895.111 1204.69 899.844 1201.11 902.802C1199.15 904.429 1197.36 904.576 1196.06 906.647C1194.6 909.013 1192.97 911.084 1191.99 913.598C1190.37 918.035 1188.74 921.584 1185.97 925.578C1184.18 928.092 1183.53 930.31 1183.21 933.268C1183.04 935.339 1181.91 937.705 1182.07 939.776C1185.65 936.67 1185.32 931.937 1187.6 928.24C1188.74 926.465 1190.04 925.282 1191.83 924.099C1194.43 922.472 1196.88 920.401 1199.64 918.922C1203.87 916.556 1209.57 915.817 1214.61 915.373C1218.84 915.077 1223.23 914.485 1227.47 913.746C1229.91 913.302 1235.6 913.45 1237.07 911.528C1233.16 909.605 1226.81 910.64 1222.58 910.64Z" fill="#38192D"/>
<path d="M1244.06 535.723C1243.09 535.723 1242.11 535.575 1241.13 535.723C1240.32 535.871 1239.83 536.462 1239.99 537.202C1237.72 538.237 1237.88 540.16 1238.04 542.378C1238.04 542.822 1238.2 543.414 1238.04 543.857C1237.72 544.597 1236.41 545.484 1235.6 546.076C1233 547.85 1229.91 549.034 1227.14 550.513C1226.16 550.956 1225.35 551.4 1224.54 551.992C1223.4 553.027 1222.26 553.766 1220.96 554.654C1219.66 555.541 1218.19 556.429 1216.89 557.464C1216.08 558.055 1215.42 558.795 1214.61 559.386C1212.82 560.718 1210.71 561.309 1208.75 562.64C1207.61 563.38 1206.48 564.267 1205.66 565.302C1205.17 565.894 1204.2 566.633 1204.03 567.373C1204.85 567.964 1206.64 566.781 1207.29 566.338C1208.75 565.598 1210.06 564.711 1211.52 563.971C1212.66 563.38 1213.63 563.38 1214.61 562.936C1215.59 562.64 1216.4 562.196 1217.38 561.753C1219.82 560.717 1221.77 559.238 1224.05 558.055C1225.51 557.316 1226.49 555.985 1227.95 555.097C1230.07 553.914 1232.51 553.027 1234.46 551.548C1236.25 550.365 1238.04 549.034 1240.32 548.442C1241.46 548.146 1243.25 547.85 1244.22 547.259C1244.88 546.815 1245.53 546.076 1245.85 545.336C1246.5 544.005 1246.5 542.822 1246.01 541.491C1245.69 540.604 1245.2 540.012 1245.69 539.125C1246.01 538.533 1246.83 538.237 1247.48 537.941C1247.97 537.646 1248.13 537.646 1248.94 537.646C1249.27 537.646 1250.08 537.793 1250.08 537.35C1249.76 536.462 1245.04 535.723 1244.06 535.723Z" fill="#38192D"/>
<path d="M1216.89 699.592C1217.38 698.852 1217.21 698.113 1216.4 696.93C1214.77 697.965 1214.29 698.852 1212.98 700.331C1212.01 701.514 1210.71 702.55 1209.89 703.881C1208.59 705.951 1209.08 709.057 1209.08 711.423C1209.08 712.902 1209.57 713.494 1210.22 714.825C1210.71 716.008 1210.71 717.191 1210.71 718.375C1210.71 719.114 1211.03 719.706 1211.19 720.445C1211.36 721.333 1211.19 721.037 1212.01 721.48C1212.5 721.776 1212.5 722.22 1213.15 722.072C1214.29 721.924 1213.96 720.741 1213.96 720.001C1213.96 716.452 1213.96 713.05 1213.96 709.501C1213.96 708.022 1213.63 707.43 1215.1 706.839C1215.91 706.543 1216.56 706.099 1217.21 705.803C1218.03 705.36 1219.17 704.768 1219.49 704.029C1218.52 703.733 1217.21 704.176 1216.4 704.029C1215.42 703.733 1215.42 702.55 1215.59 701.81C1215.59 700.775 1216.4 700.479 1216.89 699.592Z" fill="#38192D"/>
<path d="M1369.03 800.457C1368.38 797.203 1367.72 794.097 1366.59 790.844C1366.26 790.104 1365.61 788.773 1365.77 787.886C1366.1 786.851 1371.63 783.449 1369.03 781.97C1368.21 781.526 1366.91 782.118 1365.94 781.97C1364.8 781.674 1365.28 781.083 1364.96 780.047C1364.63 779.012 1364.47 778.273 1364.47 777.089C1364.47 776.202 1364.63 775.167 1364.47 774.131C1364.15 772.209 1363.01 769.99 1362.36 768.216C1362.03 767.624 1361.54 766.737 1361.38 766.145C1361.22 765.701 1361.38 765.258 1361.22 764.814C1361.05 764.518 1360.73 764.37 1360.73 764.074C1360.57 763.483 1360.89 762.3 1360.08 762.004C1358.94 761.56 1358.61 763.631 1358.61 763.335C1359.75 763.483 1359.1 768.363 1359.1 769.103C1359.1 771.913 1359.1 774.427 1359.59 777.089C1360.08 779.752 1360.73 782.266 1360.73 784.928C1360.73 786.111 1360.73 787.294 1360.73 788.329C1360.73 790.252 1361.87 791.731 1362.68 793.654C1364.47 797.647 1364.8 802.232 1366.1 806.373C1367.07 809.183 1368.7 811.845 1370 814.507C1370.82 814.359 1370.49 811.254 1370.49 810.662C1370.65 807.26 1369.68 803.859 1369.03 800.457Z" fill="#38192D"/>
<path d="M1344.13 620.763C1342.99 620.911 1342.67 620.32 1341.69 620.32C1340.39 620.172 1340.39 620.468 1340.23 621.355C1340.06 622.686 1340.23 623.869 1339.74 625.052C1339.41 626.088 1338.76 627.123 1338.6 628.306C1338.27 631.708 1338.6 635.405 1338.6 638.955C1338.6 642.208 1338.6 645.462 1339.25 648.568C1339.74 650.786 1339.9 653.005 1340.39 655.223C1340.55 656.406 1340.71 657.737 1341.04 658.921C1341.2 659.512 1341.53 660.252 1342.02 660.695C1341.69 655.519 1342.83 650.047 1341.53 645.166C1341.04 643.539 1341.04 640.729 1342.02 639.398C1342.67 638.659 1343.16 638.363 1344.13 637.919C1344.78 637.623 1344.95 638.067 1345.27 637.328C1345.43 636.884 1345.11 636.44 1344.95 635.997C1344.29 634.37 1342.67 632.891 1342.5 631.116C1342.34 630.377 1342.5 629.489 1342.5 628.602C1342.5 627.567 1342.83 627.419 1343.32 626.679C1344.13 625.348 1343.81 624.017 1344.95 622.982C1345.43 622.686 1346.74 621.799 1346.74 621.207C1346.9 619.876 1345.43 620.32 1344.13 620.763Z" fill="#38192D"/>
<path d="M1301.01 734.791C1301.01 734.495 1300.85 733.017 1300.69 732.869C1300.36 732.573 1299.71 732.425 1299.71 733.164V733.608C1298.73 735.679 1299.22 738.489 1299.22 740.855C1299.22 741.742 1299.06 743.073 1299.22 743.961C1299.39 744.7 1299.87 745.144 1299.87 745.884C1300.36 745.884 1301.17 744.257 1301.34 743.961C1301.83 742.186 1301.5 739.968 1301.5 738.045C1301.34 737.01 1301.34 735.974 1301.01 734.791Z" fill="#38192D"/>
<path d="M1433.46 697.817C1432.81 694.12 1431.18 690.718 1428.91 687.612C1426.95 684.95 1426.63 680.661 1426.14 677.555C1425.81 675.781 1425.65 674.006 1424.84 672.231C1424.02 670.604 1422.89 669.717 1421.75 668.386C1420.93 667.35 1420.77 667.055 1419.47 667.055C1417.84 666.907 1417.84 667.646 1418.33 668.09C1418.17 668.09 1418 668.09 1417.84 668.09C1417.35 668.829 1417.68 670.752 1418 671.492C1419.14 675.189 1420.77 678.738 1422.23 682.288C1423.05 684.359 1423.54 686.725 1424.84 688.5C1425.98 690.127 1426.95 691.605 1427.6 693.38C1427.93 694.416 1430.86 703.881 1433.3 702.106C1434.28 701.662 1433.62 698.557 1433.46 697.817Z" fill="#38192D"/>
<path d="M2434 996.351C2428.1 996.522 2422.21 996.606 2416.31 996.596C2326.59 996.742 2237.64 975.555 2148.5 954.322C2102.9 943.46 2057.25 932.586 2011.42 924.549C1904.7 905.355 1796.86 901.486 1689.59 897.638L1689.55 897.636C1662.48 896.665 1635.46 895.695 1608.49 894.481C1589.9 893.695 1571.32 892.781 1552.76 891.868L1552.73 891.867L1552.71 891.866H1552.7C1435.88 886.122 1319.59 880.405 1203.6 906.538C1140.07 920.588 1076.85 943.865 1013.71 967.112L1013.7 967.114C942.044 993.496 870.488 1019.84 798.709 1032.62C716.208 1047.28 632.958 1043.92 549.421 1040.56C497.627 1038.47 445.722 1036.38 393.818 1038.57C310.323 1042.34 226.291 1057.81 142.25 1073.29C91.7626 1082.58 41.2719 1091.88 -9.10788 1098.64C-144.727 1116.65 -279.167 1116.65 -346.583 1116.65H-414L-414 1461.73C-357.307 1455.77 -300.772 1441.31 -244.168 1426.84C-194.922 1414.24 -145.624 1401.64 -96.1246 1394.6C-14.1689 1383.07 68.4221 1387.22 150.945 1391.36C209.357 1394.3 267.734 1397.23 325.829 1394.6C376.66 1392.21 427.385 1385.57 478.024 1378.95C568.872 1367.06 659.441 1355.21 749.84 1368.01C841.158 1380.82 931.88 1418.34 1022.61 1455.86L1022.63 1455.87C1073 1476.7 1123.37 1497.53 1173.85 1514.14C1313.82 1560.33 1455.84 1574.15 1597.86 1553.98C1684.77 1541.76 1772.23 1516.44 1859.71 1491.11C1913.11 1475.65 1966.52 1460.18 2019.82 1447.7C2161.84 1414.76 2302.63 1400.94 2373.23 1394.6L2434 1388.86V996.351Z" fill="url(#paint0_linear_236_10)"/>
<path d="M1006.17 452C1006.17 452 1001.98 467.333 1009.46 480.909C1009.46 480.909 1014.28 486 1017.38 488.909C1017.38 488.909 1020.22 494.667 1021.12 497.152C1022.02 499.576 1021.12 498.242 1021.12 498.242C1021.12 498.242 1018.29 497.576 1016.03 500.667C1016.03 500.667 1012.43 499.758 1010.63 504C1010.63 504 1014.82 501.576 1016.62 504C1016.62 504 1030.4 516 1037.61 514.242C1037.61 514.242 1043.28 516 1044.81 516C1044.81 516 1039.14 512.667 1038.82 508C1038.51 503.333 1043.64 497.333 1047.38 497.333C1051.12 497.333 1057.11 497.576 1061.34 495.333C1065.53 493.091 1069 485.879 1069 485.879C1069 485.879 1063.14 494.909 1057.47 493.758C1051.79 492.667 1033.33 493.091 1031.53 498C1031.53 498 1030.49 500.242 1029.86 498.424C1029.27 496.667 1027.47 490.182 1018.02 480C1018.02 480 1014.55 470.242 1009.46 466C1004.37 461.758 1006.17 452 1006.17 452Z" fill="url(#paint1_linear_236_10)"/>
<path d="M407.014 747.797C406.087 748.238 404.945 749.328 404.265 749.024C382.547 739.302 359.607 735.73 336.98 730.447C321.48 726.829 306.165 722.026 290.923 717.1C285.432 715.326 280.307 711.741 280.1 701.535C283.347 702.764 285.963 703.429 288.334 704.709C299.006 710.469 314.458 709.424 319.618 700.163C326.576 687.673 330.258 673.201 329.241 657.969C328.468 646.4 321.662 636.269 313.744 633.923C301.72 630.361 292.082 621.682 280.688 617.863C271.475 614.775 259.353 626.812 256.847 639.459C256.487 641.275 256.44 643.175 256.029 647.156C244.684 634.786 233.619 627.09 218.113 634.575C201.068 642.803 203.293 658.403 205.283 674.527C196.139 671.809 191.553 664.812 190.541 655.653C188.544 637.588 196.599 626.035 208.289 616.645C215.618 610.758 222.022 604.301 224.183 593.504C227.145 578.709 219.043 564.734 206.058 563.796C201.158 563.442 198.469 562.337 196.297 556.359C189.719 538.257 166.842 535.236 156.703 551.062C153.225 556.491 150.96 556.247 146.838 552.705C134.911 542.454 121.34 549.399 114.998 561.201C108.773 572.784 113.284 591.524 124.453 598.173C134.385 604.085 144.959 608.537 155.238 613.666C156.933 614.512 158.565 615.529 160.024 617.494C143.794 620.18 127.418 621.802 113.632 609.036C101.302 597.618 90.382 584.165 78.267 572.407C64.546 559.091 50.1872 546.663 36.4389 534.152C59.7516 512.811 59.7516 512.811 52.4573 484.854C68.2708 478.215 72.9656 472.324 71.4116 456.924C70.7804 450.67 66.2994 444.973 63.7205 438.935C62.6749 436.487 60.6483 432.833 61.4079 431.381C72.0393 411.059 59.9957 395.772 45.6494 386.409C27.0981 374.3 14.5626 377.117 -4.29349 397.411C-9.28143 382.35 -17.6954 372.542 -32.1798 371.568C-47.0729 370.566 -55.59 379.994 -60.1601 391.794C-69.7548 391.669 -78.1161 389.95 -85.6737 392.081C-90.0307 393.309 -94.3713 400.084 -96.4997 405.534C-104.111 425.02 -99.6356 440.009 -84.3765 449.831C-89.7154 455.816 -99.6191 456.229 -105.058 448.81C-110.413 441.504 -114.797 432.849 -118.159 424.04C-124.738 406.799 -125.567 386.306 -138.342 372.707C-142.57 368.207 -149.242 366.809 -155.474 364C-156.152 409.473 -156.152 454.937 -155.605 501.481C-145.386 509.823 -135.917 517.488 -126.005 524.278C-79.5034 556.132 -32.966 587.918 13.7462 619.352C30.3203 630.505 47.2079 641.1 64.3501 651.022C81.4221 660.903 98.9931 669.62 116.917 678.847C120.447 680.64 123.404 682.434 126.958 684.288C132.62 686.981 137.686 689.614 143.227 692.341C144.174 692.93 144.646 693.423 145.704 693.94C155.025 698.355 163.762 702.747 173.115 707.167C177.369 709.154 181.008 711.112 185.248 713.048C195.265 717.236 204.68 721.446 214.715 725.855C228.271 731.38 241.13 736.972 254.155 741.983C306.491 762.121 359.402 779.787 413.764 791.027C433.534 795.115 453.333 799.014 473.119 803C473.412 802.067 473.706 801.135 474 800.202C449.406 786.529 426.972 769.237 407.014 747.797Z" fill="#F0F9FF"/>
<path d="M1138.6 169C1138.6 169 1129.3 194.3 1145.9 216.7C1145.9 216.7 1156.6 225.1 1163.5 229.9C1163.5 229.9 1169.8 239.4 1171.8 243.5C1173.8 247.5 1171.8 245.3 1171.8 245.3C1171.8 245.3 1165.5 244.2 1160.5 249.3C1160.5 249.3 1152.5 247.8 1148.5 254.8C1148.5 254.8 1157.8 250.8 1161.8 254.8C1161.8 254.8 1192.4 274.6 1208.4 271.7C1208.4 271.7 1221 274.6 1224.4 274.6C1224.4 274.6 1211.8 269.1 1211.1 261.4C1210.4 253.7 1221.8 243.8 1230.1 243.8C1238.4 243.8 1251.7 244.2 1261.1 240.5C1270.4 236.8 1278.1 224.9 1278.1 224.9C1278.1 224.9 1265.1 239.8 1252.5 237.9C1239.9 236.1 1198.9 236.8 1194.9 244.9C1194.9 244.9 1192.6 248.6 1191.2 245.6C1189.9 242.7 1185.9 232 1164.9 215.2C1164.9 215.2 1157.2 199.1 1145.9 192.1C1134.6 185.1 1138.6 169 1138.6 169Z" fill="url(#paint2_linear_236_10)"/>
<path d="M402.956 0C402.956 0 410.306 23.8879 397.13 44.9753C397.13 44.9753 388.67 52.8831 383.122 57.4959C383.122 57.4959 378.129 66.5568 376.465 70.346C374.939 74.1351 376.465 72.1581 376.465 72.1581C376.465 72.1581 381.458 71.1696 385.48 75.9472C385.48 75.9472 391.86 74.6293 395.05 81.2191C395.05 81.2191 387.699 77.4299 384.509 81.2191C384.509 81.2191 360.099 100 347.478 97.1993C347.478 97.1993 337.353 100 334.718 100C334.718 100 344.843 94.7281 345.259 87.4794C345.814 80.2306 336.798 70.8402 330.141 70.8402C323.484 70.8402 312.943 71.1696 305.453 67.71C298.103 64.2504 292 53.0478 292 53.0478C292 53.0478 302.263 67.0511 312.388 65.4036C322.513 63.5914 354.967 64.4152 358.157 71.9934C358.157 71.9934 359.96 75.453 361.07 72.6523C362.179 69.8517 365.369 59.8023 382.013 43.822C382.013 43.822 388.115 28.5009 397.13 22.0758C406.146 15.3213 402.956 0 402.956 0Z" fill="url(#paint3_linear_236_10)"/>
<path d="M1114.56 454.963C1115.12 455.192 1115.82 455.76 1116.23 455.601C1129.38 450.536 1143.27 448.675 1156.97 445.923C1166.36 444.038 1175.63 441.535 1184.86 438.969C1188.18 438.045 1191.29 436.177 1191.41 430.859C1189.45 431.5 1187.86 431.846 1186.43 432.513C1179.97 435.514 1170.61 434.97 1167.48 430.145C1163.27 423.637 1161.04 416.097 1161.66 408.161C1162.13 402.133 1166.25 396.855 1171.04 395.633C1178.32 393.777 1184.16 389.255 1191.06 387.265C1196.64 385.656 1203.98 391.928 1205.49 398.517C1205.71 399.463 1205.74 400.453 1205.99 402.527C1212.86 396.082 1219.56 392.073 1228.95 395.972C1239.27 400.259 1237.92 408.387 1236.72 416.788C1242.26 415.372 1245.03 411.726 1245.65 406.954C1246.85 397.542 1241.98 391.523 1234.9 386.631C1230.46 383.564 1226.58 380.2 1225.27 374.574C1223.48 366.866 1228.39 359.585 1236.25 359.096C1239.22 358.911 1240.84 358.336 1242.16 355.221C1246.14 345.79 1260 344.216 1266.14 352.461C1268.24 355.29 1269.61 355.163 1272.11 353.317C1279.33 347.976 1287.55 351.595 1291.39 357.744C1295.16 363.779 1292.43 373.542 1285.66 377.007C1279.65 380.087 1273.25 382.406 1267.02 385.079C1266 385.52 1265.01 386.05 1264.12 387.073C1273.95 388.472 1283.87 389.318 1292.22 382.666C1299.68 376.718 1306.3 369.708 1313.63 363.582C1321.94 356.645 1330.63 350.169 1338.96 343.651C1324.84 332.532 1324.84 332.532 1329.26 317.966C1319.68 314.507 1316.84 311.438 1317.78 303.415C1318.16 300.156 1320.88 297.188 1322.44 294.042C1323.07 292.766 1324.3 290.863 1323.84 290.106C1317.4 279.518 1324.7 271.554 1333.38 266.675C1344.62 260.366 1352.21 261.834 1363.62 272.408C1366.65 264.56 1371.74 259.45 1380.51 258.943C1389.53 258.421 1394.69 263.333 1397.45 269.481C1403.26 269.416 1408.33 268.52 1412.9 269.63C1415.54 270.27 1418.17 273.8 1419.46 276.639C1424.07 286.792 1421.36 294.601 1412.12 299.719C1415.35 302.837 1421.35 303.052 1424.64 299.187C1427.88 295.38 1430.54 290.871 1432.57 286.282C1436.56 277.299 1437.06 266.622 1444.8 259.537C1447.36 257.192 1451.4 256.463 1455.17 255C1455.58 278.692 1455.58 302.379 1455.25 326.629C1449.06 330.975 1443.33 334.969 1437.33 338.506C1409.17 355.103 1380.99 371.664 1352.7 388.041C1342.66 393.852 1332.44 399.372 1322.06 404.541C1311.72 409.69 1301.08 414.231 1290.23 419.038C1288.09 419.973 1286.3 420.908 1284.15 421.874C1280.72 423.277 1277.65 424.648 1274.3 426.069C1273.72 426.376 1273.44 426.633 1272.8 426.902C1267.15 429.203 1261.86 431.491 1256.2 433.794C1253.62 434.829 1251.42 435.849 1248.85 436.858C1242.78 439.04 1237.08 441.233 1231.01 443.53C1222.8 446.409 1215.01 449.322 1207.12 451.933C1175.43 462.425 1143.39 471.629 1110.48 477.486C1098.5 479.615 1086.51 481.647 1074.53 483.724C1074.36 483.238 1074.18 482.752 1074 482.266C1088.89 475.142 1102.48 466.133 1114.56 454.963Z" fill="#F1F9FF"/>
<defs>
<linearGradient id="paint0_linear_236_10" x1="-414" y1="1563" x2="-414" y2="887" gradientUnits="userSpaceOnUse">
<stop offset="0.181785" stop-color="#2C1C0D"/>
<stop offset="0.476798" stop-color="#160E06"/>
<stop offset="0.856099" stop-color="#2E1C0C"/>
</linearGradient>
<linearGradient id="paint1_linear_236_10" x1="1005.01" y1="483.989" x2="1068.99" y2="483.989" gradientUnits="userSpaceOnUse">
<stop stop-color="#1D1F21"/>
<stop offset="0.9946" stop-color="#285A86"/>
</linearGradient>
<linearGradient id="paint2_linear_236_10" x1="1136.01" y1="221.782" x2="1278.07" y2="221.782" gradientUnits="userSpaceOnUse">
<stop stop-color="#16181B"/>
<stop offset="0.9946" stop-color="#285A86"/>
</linearGradient>
<linearGradient id="paint3_linear_236_10" x1="405.048" y1="49.9181" x2="292.062" y2="49.9181" gradientUnits="userSpaceOnUse">
<stop stop-color="#1E2022"/>
<stop offset="0.9946" stop-color="#285A86"/>
</linearGradient>
</defs>
</svg>
