<svg width="1440" height="873" viewBox="0 0 1440 873" fill="none" xmlns="http://www.w3.org/2000/svg">
<path d="M1447 306.351C1443.99 306.522 1440.98 306.606 1437.97 306.596C1392.16 306.742 1346.75 285.555 1301.24 264.322C1277.96 253.46 1254.66 242.586 1231.26 234.549C1176.78 215.355 1121.72 211.486 1066.96 207.638L1066.93 207.636C1053.11 206.665 1039.32 205.695 1025.55 204.481C1016.06 203.695 1006.57 202.781 997.095 201.868L997.082 201.867L997.069 201.866H997.068C937.424 196.122 878.057 190.405 818.84 216.538C786.408 230.588 754.129 253.865 721.892 277.112L721.891 277.114C685.306 303.496 648.774 329.841 612.129 342.62C570.009 357.278 527.507 353.924 484.859 350.558C458.416 348.471 431.917 346.38 405.418 348.575C362.791 352.341 319.89 367.813 276.984 383.287C251.209 392.582 225.432 401.879 199.711 408.639C130.473 426.65 61.837 426.65 27.4187 426.65H-6.99976L-7 771.733C21.9436 765.768 50.8068 751.311 79.7049 736.836C104.847 724.243 130.015 711.637 155.286 704.598C197.127 693.075 239.293 697.221 281.424 701.364C311.245 704.296 341.048 707.226 370.708 704.598C396.658 702.211 422.555 695.574 448.408 688.949C494.789 677.063 541.028 665.214 587.18 678.006C633.8 690.816 680.117 728.337 726.437 765.859L726.446 765.866C752.163 786.698 777.88 807.532 803.652 824.137C875.109 870.326 947.616 884.15 1020.12 863.983C1064.49 851.764 1109.14 826.44 1153.8 801.112C1181.07 785.649 1208.34 770.184 1235.55 757.699C1308.05 724.765 1379.93 710.941 1415.97 704.598L1447 698.858V306.351Z" fill="url(#paint0_linear_173_11)"/>
<path fill-rule="evenodd" clip-rule="evenodd" d="M1173.7 10.3843C1174.3 6.58433 1174.5 2.48433 1174.3 1.08433C1173.9 -0.715674 1172.7 1.68433 1169.1 11.0843C1166 19.3843 1164.6 24.2843 1165.1 25.5843C1165.5 26.6843 1168.9 32.0843 1172.7 37.5843L1179.6 47.5843C1181.4 63.0843 1181.9 69.0843 1182 70.7843C1182 72.5843 1182.3 74.0843 1182.6 74.0843C1182.9 74.0843 1183.7 82.0843 1184.5 91.7843C1185.2 101.584 1186.6 119.884 1187.6 132.584C1189.3 155.084 1189.3 155.684 1187.4 158.084C1186.4 159.484 1185.5 161.384 1185.6 162.284C1185.6 163.284 1186.7 165.284 1188 166.784C1190.1 169.384 1190.4 170.984 1191.5 187.584C1192.1 197.484 1193.1 210.784 1193.6 217.084C1194.1 223.384 1195.3 238.984 1196.1 251.584C1196.9 264.184 1197.8 276.084 1198.1 277.784C1198.5 280.284 1199.1 281.084 1200.6 281.084C1202.4 281.084 1202.6 280.584 1202.1 275.284C1201.8 272.184 1200.7 257.484 1199.6 242.584C1198.6 227.684 1197 205.184 1196.1 192.584C1195.2 179.884 1194.9 169.284 1195.3 168.984C1195.7 168.684 1203.7 165.684 1213 162.484C1222.3 159.284 1230.5 156.184 1231.3 155.584C1232 154.984 1233.3 150.784 1234.1 146.084C1234.9 141.384 1236.2 135.784 1237 133.584C1238.4 129.884 1238.5 131.084 1238.5 150.784L1238.6 172.084H1255.1L1263.6 163.584L1272.1 172.084H1287.6C1287.8 131.184 1287.9 128.984 1289.1 131.584C1289.9 133.184 1291.1 137.684 1291.8 141.484C1292.8 146.984 1292.8 148.484 1291.9 148.784C1291 148.984 1290.6 151.284 1290.6 156.084V163.084C1296.8 163.084 1300.1 162.384 1301.9 161.584C1303.6 160.784 1305.7 159.084 1306.5 157.884C1307.5 156.184 1307.7 153.484 1307.2 147.584C1306.8 143.184 1305.9 137.084 1305.1 134.084C1304.3 131.084 1302.8 126.484 1301.6 123.784C1300.5 121.184 1299.3 119.184 1298.9 119.384C1298.4 119.484 1295.4 120.984 1292.1 122.684C1288.8 124.384 1283.6 126.384 1280.6 127.184C1277.4 127.984 1270 128.484 1263.1 128.484C1254.8 128.484 1249.1 127.884 1244.6 126.684C1241 125.784 1235.7 123.584 1232.9 121.984L1227.6 119.084C1223.8 127.184 1221.9 133.084 1220.9 137.284L1219.1 145.084C1202.1 151.084 1196.2 152.984 1195.2 153.184C1193.3 153.584 1193.1 151.984 1190.4 116.084C1188.9 95.4843 1187.9 75.3843 1188.1 71.5843C1188.3 67.7843 1188.1 60.7843 1187.7 56.0843L1186.8 47.5843L1199.4 22.5843C1189.1 3.98433 1186 -0.715674 1185.8 0.0843263C1185.6 0.884326 1186.7 5.58433 1188.1 10.5843C1189.5 15.5843 1190.6 20.4843 1190.6 21.5843C1190.6 22.6843 1189.2 28.0843 1187.6 33.5843C1185.9 39.0843 1184.6 43.6843 1184.6 43.7843C1184.6 43.9843 1184 44.0843 1183.4 44.0843C1182.7 44.1843 1180 39.6843 1177.4 34.0843C1174.5 28.0843 1172.6 22.6843 1172.6 20.5843C1172.6 18.6843 1173.1 14.0843 1173.7 10.3843ZM1243 14.2843C1244.3 11.9843 1245 10.0843 1244.6 10.0843C1244.2 10.0843 1242.5 11.7843 1240.9 13.7843C1239.2 15.8843 1236.6 20.0843 1235.2 23.0843C1233.1 27.4843 1232.6 30.0843 1232.6 36.2843C1232.6 41.5843 1233.3 46.0843 1234.7 50.2843C1235.8 53.7843 1238.1 58.6843 1239.7 61.2843C1242.2 65.3843 1242.4 66.4843 1241.5 68.7843C1240.7 70.8843 1240.9 73.2843 1242.1 78.5843C1243.4 84.0843 1243.5 86.4843 1242.7 89.7843C1241.8 93.1843 1241.9 94.6843 1243.1 97.0843C1243.9 98.6843 1246.8 101.884 1249.6 104.084C1252.3 106.284 1255 108.084 1255.6 108.084C1256.1 108.084 1255.6 105.684 1254.5 102.784C1253.3 99.9843 1250.8 93.6843 1249 88.7843C1247.1 83.9843 1245.6 79.3843 1245.6 78.5843C1245.6 77.4843 1246.3 77.2843 1247.8 77.6843C1249.1 77.9843 1253.1 79.1843 1256.8 80.3843L1263.6 82.5843C1272.51 79.6408 1276.8 78.2795 1278.48 77.7452L1278.49 77.7446L1278.49 77.7445C1278.92 77.6076 1279.18 77.5252 1279.3 77.4843C1280.1 77.1843 1280.6 78.0843 1280.6 79.5843C1280.6 80.9843 1278.3 87.6843 1275.6 94.5843C1272.8 101.484 1270.6 107.284 1270.6 107.584C1270.6 107.884 1270.9 108.084 1271.3 108.084C1271.8 108.184 1274.3 106.184 1277 103.884C1279.7 101.484 1282.7 98.1843 1283.7 96.5843C1285.2 93.9843 1285.2 93.0843 1284.2 89.5843C1283.1 86.2843 1283.2 84.7843 1284.3 81.0843C1285.2 78.2843 1285.6 74.2843 1285.3 70.5843C1284.9 65.4843 1285.2 63.9843 1287.2 60.7843C1288.5 58.7843 1290.6 54.6843 1291.8 51.7843C1293.5 47.7843 1294 44.4843 1294 37.0843C1294.1 28.1843 1293.9 27.1843 1290.9 21.5843C1289.1 18.2843 1286.2 14.1843 1284.5 12.5843C1282.8 10.8843 1281.5 9.98433 1281.8 10.5843C1282 11.0843 1283.4 14.0843 1284.9 17.0843C1286.3 20.0843 1288.1 25.2843 1288.7 28.5843C1289.5 33.0843 1289.5 36.0843 1288.6 40.5843C1288 43.8843 1285.8 49.6843 1283.8 53.3843C1281.7 57.0843 1279.9 60.1843 1279.6 60.1843C1279.3 60.1843 1278.4 59.4843 1277.6 58.5843C1276.8 57.6843 1274.1 56.2843 1271.6 55.3843C1269.47 54.6173 1267.12 53.4144 1265.85 52.5805C1265.79 56.1631 1265.19 59.9622 1263.65 63.5C1261.85 60.0417 1261.12 56.3336 1261.01 52.8222C1259.96 53.5507 1258.41 54.2758 1257.1 54.5843C1255.4 54.9843 1252.5 56.3843 1250.6 57.6843C1248.6 58.9843 1246.7 59.6843 1246.1 59.1843C1245.6 58.6843 1243.6 54.9843 1241.7 50.9843C1239.3 45.7843 1238.1 41.6843 1237.8 37.0843C1237.5 32.6843 1237.9 28.5843 1239 24.5843C1240 21.2843 1241.8 16.6843 1243 14.2843ZM1186.1 18.2843C1185.2 16.8843 1183.6 16.0843 1181.7 16.0843C1180.2 16.0843 1178.1 16.8843 1177.1 17.8843C1176.1 18.8843 1175.3 20.5843 1175.4 21.6843C1175.5 22.6843 1176 24.0843 1176.4 24.6843C1176.8 25.2843 1178.2 26.3843 1179.6 26.9843C1181.7 28.0843 1182.5 27.9843 1184.6 26.2843C1186 25.2843 1187.2 23.4843 1187.4 22.4843C1187.6 21.4843 1187 19.5843 1186.1 18.2843ZM1248.82 80.0859C1248.81 80.0848 1248.8 80.0843 1248.8 80.0843H1248.9C1248.89 80.0843 1248.88 80.0857 1248.87 80.0885C1248.87 80.0897 1248.86 80.0912 1248.86 80.093C1248.84 80.0897 1248.83 80.0873 1248.82 80.0859ZM1248.86 80.093C1249.32 80.1878 1251.99 81.0472 1255.1 82.0843C1258.4 83.1843 1262 84.0843 1263.1 84.0843C1264.2 84.0843 1268 83.1843 1271.6 82.0843C1275.2 81.0843 1278.2 80.3843 1278.4 80.5843C1278.5 80.8843 1276.9 85.3843 1274.9 90.5843C1272.2 97.3843 1270.5 100.184 1269.1 100.584C1268 100.784 1265.1 101.084 1262.6 101.084C1260.1 101.084 1257.3 100.584 1256.4 99.8843C1255.5 99.1843 1253.4 94.9843 1251.7 90.5843C1250 86.1843 1248.6 81.9843 1248.6 81.2843C1248.6 80.7265 1248.69 80.1687 1248.86 80.093ZM1234.97 103.977L1234.97 103.977C1229.25 103.515 1223.91 103.084 1222.8 103.084C1221.5 103.084 1220.5 103.284 1220.5 103.584C1220.5 103.884 1221.5 106.184 1222.8 108.784C1224 111.284 1226.5 114.684 1228.3 116.284C1230 117.784 1233.3 119.984 1235.5 121.084C1237.7 122.184 1242.3 123.784 1245.7 124.684C1249.9 125.784 1255.9 126.384 1263.5 126.384C1269.8 126.284 1277.3 125.784 1280 125.084C1282.8 124.484 1287.3 122.884 1290 121.584C1292.8 120.284 1296.9 117.284 1299.3 114.884C1301.7 112.484 1304.1 108.984 1304.6 107.084C1305.2 105.184 1305.5 103.484 1305.3 103.284C1305.1 103.084 1299.3 103.484 1292.3 103.984C1279.8 105.084 1279.4 105.184 1273.5 109.084C1270.2 111.284 1267.2 112.884 1266.8 112.584C1266.3 112.284 1266.6 110.984 1267.3 109.584L1267.3 109.584C1267.9 108.184 1268.5 106.784 1268.5 106.284C1268.5 105.884 1266.3 105.684 1263.5 105.784C1259.3 106.084 1258.6 106.384 1258.9 107.784C1259.1 108.784 1259.5 110.384 1259.9 111.284C1260.2 112.284 1260.2 113.084 1259.8 113.084C1259.3 113.084 1256.4 111.284 1253.3 109.084C1247.7 105.284 1247.1 105.084 1236.3 104.084L1234.97 103.977ZM1236.5 273.084C1236.5 180.884 1236.4 154.084 1236.2 154.084C1236 154.084 1234.7 155.184 1233.4 156.584C1232.1 157.984 1228.5 159.984 1225.5 161.084L1220 162.984C1217.3 183.584 1215.6 199.484 1214.5 211.584C1213.5 223.684 1212.2 240.984 1211.8 250.084C1211.59 254.755 1211.39 259.083 1211.24 262.271C1211.09 265.294 1211 267.292 1211 267.584C1211 268.084 1214.6 269.284 1219 270.184C1223.4 271.084 1229.1 272.084 1231.8 272.384L1236.5 273.084ZM1307.9 172.584C1307.1 167.084 1306.3 162.484 1306.2 162.484C1306 162.384 1305 162.884 1303.9 163.684C1302.9 164.484 1299.4 165.484 1296.2 165.884L1290.5 166.584V273.084C1296.3 272.084 1301.6 271.184 1306 270.484C1310.4 269.684 1314.4 268.784 1314.8 268.384C1315.3 267.884 1315.1 258.384 1314.5 247.084C1313.9 235.784 1312.5 216.684 1311.4 204.584C1310.3 192.484 1308.7 178.084 1307.9 172.584ZM1263.5 182.584L1271.5 174.584C1265.7 168.784 1263.6 167.084 1263 167.084C1262.5 167.084 1260.4 168.684 1258.5 170.684L1255 174.184L1263.5 182.584ZM1255 177.084H1238.5V224.584C1238.5 264.584 1238.7 272.684 1240 275.584C1240.8 277.584 1242.8 279.784 1244.5 280.584C1246.2 281.384 1248.6 282.084 1250 282.084C1251.4 282.084 1253.8 281.384 1255.5 280.584C1257.2 279.784 1259.2 277.584 1260 275.584C1261.2 272.684 1261.5 265.684 1261.5 234.584C1261.5 197.784 1261.5 197.084 1263.5 197.084C1265.5 197.084 1265.5 197.784 1265.5 236.084V275.084C1271 281.184 1271.9 281.584 1276.5 281.584C1281.1 281.584 1282 281.184 1284.6 278.284L1287.5 275.084V177.084C1277.1 177.084 1273.86 177.084 1271.38 178.456C1270.26 179.076 1269.3 179.977 1267.9 181.284L1263.5 185.584L1255 177.084ZM1251 83C1254.55 83.5078 1260.9 85.8942 1260.9 88.3313C1260.9 91.3778 1252.52 90.6162 1251 83ZM1275.9 83C1272.35 83.5078 1266 85.8942 1266 88.3313C1266 91.3778 1274.38 90.6162 1275.9 83Z" fill="#2C1C0D"/>
<defs>
<linearGradient id="paint0_linear_173_11" x1="-7" y1="873" x2="-7" y2="197" gradientUnits="userSpaceOnUse">
<stop offset="0.181785" stop-color="#2C1C0D"/>
<stop offset="0.476798" stop-color="#160E06"/>
<stop offset="0.856099" stop-color="#2E1C0C"/>
</linearGradient>
</defs>
</svg>
