<svg width="1440" height="803" viewBox="0 0 1440 803" fill="none" xmlns="http://www.w3.org/2000/svg">
<path d="M993.17 452C993.17 452 988.981 467.333 996.457 480.909C996.457 480.909 1001.28 486 1004.38 488.909C1004.38 488.909 1007.22 494.667 1008.12 497.152C1009.02 499.576 1008.12 498.242 1008.12 498.242C1008.12 498.242 1005.29 497.576 1003.03 500.667C1003.03 500.667 999.43 499.758 997.628 504C997.628 504 1001.82 501.576 1003.62 504C1003.62 504 1017.4 516 1024.61 514.242C1024.61 514.242 1030.28 516 1031.81 516C1031.81 516 1026.14 512.667 1025.82 508C1025.51 503.333 1030.64 497.333 1034.38 497.333C1038.12 497.333 1044.11 497.576 1048.34 495.333C1052.53 493.091 1056 485.879 1056 485.879C1056 485.879 1050.14 494.909 1044.47 493.758C1038.79 492.667 1020.33 493.091 1018.53 498C1018.53 498 1017.49 500.242 1016.86 498.424C1016.27 496.667 1014.47 490.182 1005.02 480C1005.02 480 1001.55 470.242 996.457 466C991.368 461.758 993.17 452 993.17 452Z" fill="url(#paint0_linear_321_9)"/>
<path d="M394.014 747.797C393.087 748.238 391.945 749.328 391.265 749.024C369.547 739.302 346.607 735.73 323.98 730.447C308.48 726.829 293.165 722.026 277.923 717.1C272.432 715.326 267.307 711.741 267.1 701.535C270.347 702.764 272.963 703.429 275.334 704.709C286.006 710.469 301.458 709.424 306.618 700.163C313.576 687.673 317.258 673.201 316.241 657.969C315.468 646.4 308.662 636.269 300.744 633.923C288.72 630.361 279.082 621.682 267.688 617.863C258.475 614.775 246.353 626.812 243.847 639.459C243.487 641.275 243.44 643.175 243.029 647.156C231.684 634.786 220.619 627.09 205.113 634.575C188.068 642.803 190.293 658.403 192.283 674.527C183.139 671.809 178.553 664.812 177.541 655.653C175.544 637.588 183.599 626.035 195.289 616.645C202.618 610.758 209.022 604.301 211.183 593.504C214.145 578.709 206.043 564.734 193.058 563.796C188.158 563.442 185.469 562.337 183.297 556.359C176.719 538.257 153.842 535.236 143.703 551.062C140.225 556.491 137.96 556.247 133.838 552.705C121.911 542.454 108.34 549.399 101.998 561.201C95.773 572.784 100.284 591.524 111.453 598.173C121.385 604.085 131.959 608.537 142.238 613.666C143.933 614.512 145.565 615.529 147.024 617.494C130.794 620.18 114.418 621.802 100.632 609.036C88.3021 597.618 77.382 584.165 65.267 572.407C51.546 559.091 37.1872 546.663 23.439 534.152C46.7516 512.811 46.7516 512.811 39.4573 484.854C55.2708 478.215 59.9656 472.324 58.4116 456.924C57.7804 450.67 53.2994 444.973 50.7205 438.935C49.6749 436.487 47.6483 432.833 48.4079 431.381C59.0393 411.059 46.9957 395.772 32.6494 386.409C14.0981 374.3 1.56262 377.117 -17.2935 397.411C-22.2814 382.35 -30.6954 372.542 -45.1798 371.568C-60.0729 370.566 -68.59 379.994 -73.1601 391.794C-82.7548 391.669 -91.1161 389.95 -98.6737 392.081C-103.031 393.309 -107.371 400.084 -109.5 405.534C-117.111 425.02 -112.636 440.009 -97.3765 449.831C-102.715 455.816 -112.619 456.229 -118.058 448.81C-123.413 441.504 -127.797 432.849 -131.159 424.04C-137.738 406.799 -138.567 386.306 -151.342 372.707C-155.57 368.207 -162.242 366.809 -168.474 364C-169.152 409.473 -169.152 454.937 -168.605 501.481C-158.386 509.823 -148.917 517.488 -139.005 524.278C-92.5034 556.132 -45.966 587.918 0.746185 619.352C17.3203 630.505 34.2079 641.1 51.3501 651.022C68.4221 660.903 85.9931 669.62 103.917 678.847C107.447 680.64 110.404 682.434 113.958 684.288C119.62 686.981 124.686 689.614 130.227 692.341C131.174 692.93 131.646 693.423 132.704 693.94C142.025 698.355 150.762 702.747 160.115 707.167C164.369 709.154 168.008 711.112 172.248 713.048C182.265 717.236 191.68 721.446 201.715 725.855C215.271 731.38 228.13 736.972 241.155 741.983C293.491 762.121 346.402 779.787 400.764 791.027C420.534 795.115 440.333 799.014 460.119 803C460.412 802.067 460.706 801.135 461 800.202C436.406 786.529 413.972 769.237 394.014 747.797Z" fill="#F0F9FF"/>
<path d="M1125.6 169C1125.6 169 1116.3 194.3 1132.9 216.7C1132.9 216.7 1143.6 225.1 1150.5 229.9C1150.5 229.9 1156.8 239.4 1158.8 243.5C1160.8 247.5 1158.8 245.3 1158.8 245.3C1158.8 245.3 1152.5 244.2 1147.5 249.3C1147.5 249.3 1139.5 247.8 1135.5 254.8C1135.5 254.8 1144.8 250.8 1148.8 254.8C1148.8 254.8 1179.4 274.6 1195.4 271.7C1195.4 271.7 1208 274.6 1211.4 274.6C1211.4 274.6 1198.8 269.1 1198.1 261.4C1197.4 253.7 1208.8 243.8 1217.1 243.8C1225.4 243.8 1238.7 244.2 1248.1 240.5C1257.4 236.8 1265.1 224.9 1265.1 224.9C1265.1 224.9 1252.1 239.8 1239.5 237.9C1226.9 236.1 1185.9 236.8 1181.9 244.9C1181.9 244.9 1179.6 248.6 1178.2 245.6C1176.9 242.7 1172.9 232 1151.9 215.2C1151.9 215.2 1144.2 199.1 1132.9 192.1C1121.6 185.1 1125.6 169 1125.6 169Z" fill="url(#paint1_linear_321_9)"/>
<path d="M389.956 0C389.956 0 397.306 23.8879 384.13 44.9753C384.13 44.9753 375.67 52.8831 370.122 57.4959C370.122 57.4959 365.129 66.5568 363.465 70.346C361.939 74.1351 363.465 72.1581 363.465 72.1581C363.465 72.1581 368.458 71.1696 372.48 75.9472C372.48 75.9472 378.86 74.6293 382.05 81.2191C382.05 81.2191 374.699 77.4299 371.509 81.2191C371.509 81.2191 347.099 100 334.478 97.1993C334.478 97.1993 324.353 100 321.718 100C321.718 100 331.843 94.7281 332.259 87.4793C332.814 80.2306 323.798 70.8402 317.141 70.8402C310.484 70.8402 299.943 71.1696 292.453 67.71C285.103 64.2504 279 53.0478 279 53.0478C279 53.0478 289.263 67.0511 299.388 65.4036C309.513 63.5914 341.967 64.4152 345.157 71.9934C345.157 71.9934 346.96 75.453 348.07 72.6523C349.179 69.8517 352.369 59.8023 369.013 43.822C369.013 43.822 375.115 28.5009 384.13 22.0758C393.146 15.3213 389.956 0 389.956 0Z" fill="url(#paint2_linear_321_9)"/>
<path d="M1101.56 454.963C1102.12 455.192 1102.82 455.76 1103.23 455.601C1116.38 450.536 1130.27 448.675 1143.97 445.923C1153.36 444.038 1162.63 441.535 1171.86 438.969C1175.18 438.045 1178.29 436.177 1178.41 430.859C1176.45 431.5 1174.86 431.846 1173.43 432.513C1166.97 435.514 1157.61 434.97 1154.48 430.145C1150.27 423.637 1148.04 416.097 1148.66 408.161C1149.13 402.133 1153.25 396.855 1158.04 395.633C1165.32 393.777 1171.16 389.255 1178.06 387.265C1183.64 385.656 1190.98 391.928 1192.49 398.517C1192.71 399.463 1192.74 400.453 1192.99 402.527C1199.86 396.082 1206.56 392.073 1215.95 395.972C1226.27 400.259 1224.92 408.387 1223.72 416.788C1229.26 415.372 1232.03 411.726 1232.65 406.954C1233.85 397.542 1228.98 391.523 1221.9 386.631C1217.46 383.564 1213.58 380.2 1212.27 374.574C1210.48 366.866 1215.39 359.585 1223.25 359.096C1226.22 358.911 1227.84 358.336 1229.16 355.221C1233.14 345.79 1247 344.216 1253.14 352.461C1255.24 355.29 1256.61 355.163 1259.11 353.317C1266.33 347.976 1274.55 351.595 1278.39 357.744C1282.16 363.779 1279.43 373.542 1272.66 377.007C1266.65 380.087 1260.25 382.406 1254.02 385.079C1253 385.52 1252.01 386.05 1251.12 387.073C1260.95 388.472 1270.87 389.318 1279.22 382.666C1286.68 376.718 1293.3 369.708 1300.63 363.582C1308.94 356.645 1317.63 350.169 1325.96 343.651C1311.84 332.532 1311.84 332.532 1316.26 317.966C1306.68 314.507 1303.84 311.438 1304.78 303.415C1305.16 300.156 1307.88 297.188 1309.44 294.042C1310.07 292.766 1311.3 290.863 1310.84 290.106C1304.4 279.518 1311.7 271.554 1320.38 266.675C1331.62 260.366 1339.21 261.834 1350.62 272.408C1353.65 264.56 1358.74 259.45 1367.51 258.943C1376.53 258.421 1381.69 263.333 1384.45 269.481C1390.26 269.416 1395.33 268.52 1399.9 269.63C1402.54 270.27 1405.17 273.8 1406.46 276.639C1411.07 286.792 1408.36 294.601 1399.12 299.719C1402.35 302.837 1408.35 303.052 1411.64 299.187C1414.88 295.38 1417.54 290.871 1419.57 286.282C1423.56 277.299 1424.06 266.622 1431.8 259.537C1434.36 257.192 1438.4 256.463 1442.17 255C1442.58 278.692 1442.58 302.379 1442.25 326.629C1436.06 330.975 1430.33 334.969 1424.33 338.506C1396.17 355.103 1367.99 371.664 1339.7 388.041C1329.66 393.852 1319.44 399.372 1309.06 404.541C1298.72 409.69 1288.08 414.231 1277.23 419.038C1275.09 419.973 1273.3 420.908 1271.15 421.874C1267.72 423.277 1264.65 424.648 1261.3 426.069C1260.72 426.376 1260.44 426.633 1259.8 426.902C1254.15 429.203 1248.86 431.491 1243.2 433.794C1240.62 434.829 1238.42 435.849 1235.85 436.858C1229.78 439.04 1224.08 441.233 1218.01 443.53C1209.8 446.409 1202.01 449.322 1194.12 451.933C1162.43 462.425 1130.39 471.629 1097.48 477.486C1085.5 479.615 1073.51 481.647 1061.53 483.724C1061.36 483.238 1061.18 482.752 1061 482.266C1075.89 475.142 1089.48 466.133 1101.56 454.963Z" fill="#F1F9FF"/>
<defs>
<linearGradient id="paint0_linear_321_9" x1="992.006" y1="483.989" x2="1055.99" y2="483.989" gradientUnits="userSpaceOnUse">
<stop stop-color="#1D1F21"/>
<stop offset="0.9946" stop-color="#285A86"/>
</linearGradient>
<linearGradient id="paint1_linear_321_9" x1="1123.01" y1="221.782" x2="1265.07" y2="221.782" gradientUnits="userSpaceOnUse">
<stop stop-color="#16181B"/>
<stop offset="0.9946" stop-color="#285A86"/>
</linearGradient>
<linearGradient id="paint2_linear_321_9" x1="392.048" y1="49.9181" x2="279.062" y2="49.9181" gradientUnits="userSpaceOnUse">
<stop stop-color="#1E2022"/>
<stop offset="0.9946" stop-color="#285A86"/>
</linearGradient>
</defs>
</svg>
