<svg width="1440" height="676" viewBox="0 0 1440 676" fill="none" xmlns="http://www.w3.org/2000/svg">
<path d="M2421 109.351C2415.1 109.522 2409.21 109.606 2403.31 109.596C2313.59 109.742 2224.64 88.5551 2135.5 67.3218C2089.9 56.4598 2044.25 45.5859 1998.42 37.5494C1891.7 18.3548 1783.86 14.486 1676.59 10.6377L1676.55 10.636C1649.48 9.66502 1622.46 8.69526 1595.49 7.48086C1576.9 6.69471 1558.32 5.78113 1539.76 4.86827L1539.73 4.86719L1539.71 4.86611H1539.7C1422.88 -0.877791 1306.59 -6.59495 1190.6 19.5376C1127.07 33.5878 1063.85 56.8648 1000.71 80.1125L1000.7 80.1135C929.044 106.496 857.488 132.841 785.709 145.62C703.208 160.278 619.958 156.924 536.421 153.558C484.627 151.471 432.722 149.38 380.818 151.575C297.323 155.341 213.291 170.813 129.25 186.287C78.7626 195.582 28.2719 204.879 -22.1079 211.639C-157.727 229.65 -292.167 229.65 -359.583 229.65H-427L-427 574.733C-370.307 568.768 -313.772 554.311 -257.168 539.836C-207.922 527.243 -158.624 514.637 -109.125 507.598C-27.1689 496.075 55.4221 500.221 137.945 504.364C196.357 507.296 254.734 510.226 312.829 507.598C363.66 505.211 414.385 498.574 465.024 491.949C555.872 480.063 646.441 468.214 736.84 481.006C828.158 493.816 918.88 531.337 1009.61 568.859L1009.63 568.866C1060 589.698 1110.37 610.532 1160.85 627.137C1300.82 673.326 1442.84 687.15 1584.86 666.983C1671.77 654.764 1759.23 629.44 1846.71 604.112C1900.11 588.649 1953.52 573.184 2006.82 560.699C2148.84 527.765 2289.63 513.941 2360.23 507.598L2421 501.858V109.351Z" fill="url(#paint0_linear_68_744)"/>
<defs>
<linearGradient id="paint0_linear_68_744" x1="-427" y1="676" x2="-427" y2="0" gradientUnits="userSpaceOnUse">
<stop offset="0.181785" stop-color="#2C1C0D"/>
<stop offset="0.476798" stop-color="#160E06"/>
<stop offset="0.856099" stop-color="#2E1C0C"/>
</linearGradient>
</defs>
</svg>
