<svg width="250" height="260" viewBox="0 0 250 260" fill="none" xmlns="http://www.w3.org/2000/svg">
<g filter="url(#filter0_dd_288_399)">
<path d="M125 8.52735V8.5C150.486 8.77162 175.968 11.0717 205.352 15.4712C220.759 17.7783 232.613 27.537 235.156 39.7472C242.258 73.8494 245.801 102.213 245.992 129.986H246C245.809 157.759 242.266 186.123 235.164 220.225C232.621 232.436 220.767 242.194 205.36 244.501C175.973 248.902 150.489 251.201 125 251.473V251.5C99.5112 251.229 74.0267 248.929 44.6402 244.529C29.2329 242.222 17.3788 232.463 14.8359 220.253C7.73366 186.151 4.19061 157.787 4 130.014H4.00812C4.19873 102.241 7.74178 73.8767 14.844 39.7746C17.3869 27.5643 29.241 17.8056 44.6483 15.4986C74.0317 11.0991 99.5139 8.79898 125 8.52735Z" fill="#D3D3D3"/>
<path d="M125 8.52735V8.5C150.486 8.77162 175.968 11.0717 205.352 15.4712C220.759 17.7783 232.613 27.537 235.156 39.7472C242.258 73.8494 245.801 102.213 245.992 129.986H246C245.809 157.759 242.266 186.123 235.164 220.225C232.621 232.436 220.767 242.194 205.36 244.501C175.973 248.902 150.489 251.201 125 251.473V251.5C99.5112 251.229 74.0267 248.929 44.6402 244.529C29.2329 242.222 17.3788 232.463 14.8359 220.253C7.73366 186.151 4.19061 157.787 4 130.014H4.00812C4.19873 102.241 7.74178 73.8767 14.844 39.7746C17.3869 27.5643 29.241 17.8056 44.6483 15.4986C74.0317 11.0991 99.5139 8.79898 125 8.52735Z" fill="url(#paint0_diamond_288_399)" fill-opacity="0.15"/>
</g>
<defs>
<filter id="filter0_dd_288_399" x="0" y="0.5" width="250" height="259" filterUnits="userSpaceOnUse" color-interpolation-filters="sRGB">
<feFlood flood-opacity="0" result="BackgroundImageFix"/>
<feColorMatrix in="SourceAlpha" type="matrix" values="0 0 0 0 0 0 0 0 0 0 0 0 0 0 0 0 0 0 127 0" result="hardAlpha"/>
<feOffset dy="4"/>
<feGaussianBlur stdDeviation="2"/>
<feComposite in2="hardAlpha" operator="out"/>
<feColorMatrix type="matrix" values="0 0 0 0 0 0 0 0 0 0 0 0 0 0 0 0 0 0 0.25 0"/>
<feBlend mode="normal" in2="BackgroundImageFix" result="effect1_dropShadow_288_399"/>
<feColorMatrix in="SourceAlpha" type="matrix" values="0 0 0 0 0 0 0 0 0 0 0 0 0 0 0 0 0 0 127 0" result="hardAlpha"/>
<feOffset dy="-4"/>
<feGaussianBlur stdDeviation="2"/>
<feComposite in2="hardAlpha" operator="out"/>
<feColorMatrix type="matrix" values="0 0 0 0 0 0 0 0 0 0 0 0 0 0 0 0 0 0 0.25 0"/>
<feBlend mode="normal" in2="effect1_dropShadow_288_399" result="effect2_dropShadow_288_399"/>
<feBlend mode="normal" in="SourceGraphic" in2="effect2_dropShadow_288_399" result="shape"/>
</filter>
<radialGradient id="paint0_diamond_288_399" cx="0" cy="0" r="1" gradientUnits="userSpaceOnUse" gradientTransform="translate(-35.5 188.5) rotate(46.5018) scale(283.294 282.128)">
<stop offset="0.0167604" stop-color="white"/>
<stop offset="0.934889" stop-color="#3F401D"/>
</radialGradient>
</defs>
</svg>
